<?xml version="1.0" encoding="UTF-8" standalone="no"?>
<!-- Created with Inkscape (http://www.inkscape.org/) -->

<svg
   width="130mm"
   height="70mm"
   viewBox="0 0 130 70"
   version="1.1"
   id="svg5"
   xml:space="preserve"
   inkscape:version="1.2.2 (732a01da63, 2022-12-09)"
   sodipodi:docname="logo sklep.svg"
   xmlns:inkscape="http://www.inkscape.org/namespaces/inkscape"
   xmlns:sodipodi="http://sodipodi.sourceforge.net/DTD/sodipodi-0.dtd"
   xmlns="http://www.w3.org/2000/svg"
   xmlns:svg="http://www.w3.org/2000/svg"><sodipodi:namedview
     id="namedview7"
     pagecolor="#ffffff"
     bordercolor="#ffffff"
     borderopacity="1"
     inkscape:showpageshadow="0"
     inkscape:pageopacity="0"
     inkscape:pagecheckerboard="false"
     inkscape:deskcolor="#505050"
     inkscape:document-units="mm"
     showgrid="false"
     inkscape:zoom="0.70710682"
     inkscape:cx="183.14065"
     inkscape:cy="347.89652"
     inkscape:window-width="1920"
     inkscape:window-height="1009"
     inkscape:window-x="-8"
     inkscape:window-y="-8"
     inkscape:window-maximized="1"
     inkscape:current-layer="layer1"
     showguides="false" /><defs
     id="defs2"><inkscape:path-effect
       effect="bspline"
       id="path-effect5235"
       is_visible="true"
       lpeversion="1"
       weight="33.333333"
       steps="2"
       helper_size="0"
       apply_no_weight="true"
       apply_with_weight="true"
       only_selected="false" /><rect
       x="529.62299"
       y="216.37466"
       width="169.70563"
       height="153.44217"
       id="rect5114" /><inkscape:path-effect
       effect="bspline"
       id="path-effect4962"
       is_visible="true"
       lpeversion="1"
       weight="33.333333"
       steps="2"
       helper_size="0"
       apply_no_weight="true"
       apply_with_weight="true"
       only_selected="false" /><inkscape:path-effect
       effect="bspline"
       id="path-effect4765"
       is_visible="true"
       lpeversion="1"
       weight="33.333333"
       steps="2"
       helper_size="0"
       apply_no_weight="true"
       apply_with_weight="true"
       only_selected="false" /><inkscape:path-effect
       effect="bspline"
       id="path-effect5361"
       is_visible="true"
       lpeversion="1"
       weight="33.333333"
       steps="2"
       helper_size="0"
       apply_no_weight="true"
       apply_with_weight="true"
       only_selected="false" /><inkscape:path-effect
       effect="bspline"
       id="path-effect3120"
       is_visible="true"
       lpeversion="1"
       weight="33.333333"
       steps="2"
       helper_size="0"
       apply_no_weight="true"
       apply_with_weight="true"
       only_selected="false" /><inkscape:path-effect
       effect="bspline"
       id="path-effect688"
       is_visible="true"
       lpeversion="1"
       weight="33.333333"
       steps="2"
       helper_size="0"
       apply_no_weight="true"
       apply_with_weight="true"
       only_selected="false" /><inkscape:path-effect
       effect="bspline"
       id="path-effect684"
       is_visible="true"
       lpeversion="1"
       weight="33.333333"
       steps="2"
       helper_size="0"
       apply_no_weight="true"
       apply_with_weight="true"
       only_selected="false" /><clipPath
       clipPathUnits="userSpaceOnUse"
       id="clipPath4784"><path
         id="path4786"
         style="fill:#ff0000;fill-opacity:1;fill-rule:nonzero;stroke:none;stroke-width:0.264583"
         d="m 24.250716,113.21118 v 39.71592 c 0.03043,-0.0686 0.06582,-0.13566 0.08837,-0.20722 0.07685,-0.24382 0.136744,-0.60177 0.179834,-0.84491 0.179981,-1.01537 0.01839,-0.1897 0.192236,-1.00924 0.02809,-0.13239 0.05488,-0.26483 0.08217,-0.3974 0.04259,-0.31407 0.08913,-0.66975 0.137976,-0.98443 0.02116,-0.13634 0.04424,-0.27243 0.07131,-0.40773 0.0064,-0.0318 0.01894,-0.0624 0.02274,-0.0946 0.01244,-0.10548 0.01734,-0.21195 0.02584,-0.31781 0.120969,-0.0761 0.0027,0.003 0.0098,-0.38912 0.01235,-0.68626 0.09452,-1.37293 0.210323,-2.04845 0.07904,-0.36906 0.289955,-1.36329 0.363285,-1.65158 0.198287,-0.77958 0.474223,-1.67395 0.754993,-2.41949 0.115017,-0.30542 0.258001,-0.59958 0.388607,-0.89866 0.0645,-0.14771 0.131215,-0.29464 0.19689,-0.44183 0.283371,-0.60745 0.344201,-0.79822 0.750339,-1.38079 0.08565,-0.12285 0.179115,-0.23984 0.274918,-0.35502 -0.129095,-0.18888 -0.248345,-0.38372 -0.345196,-0.5917 -0.01138,-0.006 -0.02268,-0.0122 -0.03411,-0.0181 -7.93e-4,-2.7e-4 -0.0013,-1.4e-4 -0.0021,-5.3e-4 -0.04525,0.0738 -0.09066,0.14741 -0.135909,0.22118 0.04568,-0.0728 0.06072,-0.25659 0.135909,-0.22118 0.0054,-0.009 0.01064,-0.0179 0.01603,-0.0263 -0.0085,-0.019 -0.01762,-0.0377 -0.02585,-0.0569 -0.168807,-0.39205 0.263154,-0.71267 0.670761,-1.02836 0.457642,-0.78787 1.029639,-1.76675 1.386477,-2.32699 0.396584,-0.62264 0.792287,-1.24708 1.23248,-1.83968 1.053187,-1.41782 2.278083,-2.69152 3.618902,-3.83749 0.346321,-0.296 0.688663,-0.52109 1.020609,-0.68885 0.4373,-0.65675 0.930899,-1.28516 1.38286,-1.92908 0.154734,-0.20209 0.301483,-0.41128 0.464572,-0.60668 0.191092,-0.22895 0.405865,-0.437 0.597379,-0.66559 0.137541,-0.16418 0.257685,-0.3421 0.388606,-0.5116 0.474906,-0.61481 0.750271,-1.0165 1.392682,-1.51929 0.325427,-0.2547 0.698183,-0.44166 1.047481,-0.66249 0.337454,-0.1146 0.673914,-0.23307 1.01234,-0.34468 0.05454,-0.0435 0.109215,-0.0869 0.163814,-0.13023 0.729189,-0.54221 0.786974,-0.65968 1.634012,-0.99735 0.297897,-0.11876 0.608922,-0.20247 0.91777,-0.28887 0.555599,-0.15542 1.118571,-0.28496 1.679485,-0.42117 1.470697,-1.00671 3.217307,-1.46555 4.808493,-2.23293 0.131998,-0.0637 0.25736,-0.14013 0.386022,-0.21033 0.05428,-0.0391 0.113101,-0.0725 0.162782,-0.1173 0.01103,-0.01 -0.05473,0.019 -0.04341,0.01 0.280393,-0.23788 0.509665,-0.38413 0.817005,-0.5917 0.147373,-0.0995 0.291221,-0.20462 0.443383,-0.29662 0.232148,-0.14044 0.472752,-0.26707 0.708999,-0.40049 0.750657,-0.43373 0.764029,-0.4731 1.659332,-0.82786 0.315597,-0.12506 0.641305,-0.22308 0.962215,-0.33383 0.92301,-0.31857 1.852411,-0.61726 2.76779,-0.95705 0.231842,-0.0629 0.459775,-0.1422 0.695564,-0.1881 0.477234,-0.093 1.091205,-0.13411 1.591632,-0.17157 0.149672,-0.0368 0.300678,-0.0668 0.451655,-0.0966 -0.0011,-0.30635 -0.0582,-0.71003 0.185518,-0.6904 0.0047,2.7e-4 0.0093,10e-4 0.01394,0.002 0.02141,-0.0923 0.05501,-0.18182 0.08372,-0.27234 z m 37.727414,0 c 0.468106,0.20521 0.940395,0.40231 1.412317,0.59944 5.29e-4,1.7e-4 0.0011,2.3e-4 0.0016,5.3e-4 0.859401,0.26773 1.700083,0.63475 2.562117,0.88832 0.01228,-0.0427 0.02596,-0.0844 0.03876,-0.12557 -0.0369,-0.0744 -0.06314,-0.15329 -0.05529,-0.23203 0.0024,-0.0238 0.04988,-0.0121 0.06511,-0.0305 0.01873,-0.0226 0.02326,-0.11143 0.02894,-0.0827 0.02447,0.12381 -0.004,0.23325 -0.03876,0.3452 0.04049,0.0816 0.09396,0.1579 0.131776,0.22324 1.966671,3.39828 -0.368155,5.90678 -2.656168,3.55172 -0.103873,0.0277 -0.207844,0.054 -0.313677,0.0724 -0.226814,0.0393 -0.45743,0.0504 -0.686779,0.0703 -0.199046,0.0172 -0.398195,0.0329 -0.597379,0.0486 -0.132654,0.0401 -0.263996,0.0838 -0.390676,0.13953 -0.342357,0.15056 -0.663546,0.34571 -0.990637,0.5271 -0.444857,0.24669 -0.881949,0.50711 -1.324983,0.75706 -0.500261,0.28224 -1.00321,0.55938 -1.504818,0.83922 -2.284388,1.09194 -1.431396,0.74592 -3.94136,1.67484 -0.527889,0.19537 -1.065017,0.36562 -1.590085,0.56844 -0.576268,0.22261 -1.123828,0.51512 -1.698604,0.74155 -0.342474,0.13491 -0.692073,0.25039 -1.03818,0.37569 -0.01524,0.005 -0.03073,0.01 -0.04599,0.015 -0.184584,0.68795 -0.727163,1.42364 -1.733228,2.04742 -0.311589,0.19319 0.165823,-0.10565 -0.555521,0.37827 -0.136036,0.0913 -0.278051,0.17383 -0.413412,0.26613 -0.129331,0.0882 -0.232058,0.32502 -0.380338,0.27492 -0.0088,-0.003 -0.01151,-0.008 -0.01654,-0.0119 -0.02614,0.0567 -0.05094,0.11286 -0.07958,0.17104 -0.177721,0.36105 -0.548921,0.42517 -0.988052,0.38448 -0.08849,0.0604 -0.221914,0.13721 -0.375172,0.19482 -0.01005,0.007 -0.01283,0.008 -0.02326,0.0145 -0.26959,0.17914 -0.527087,0.37589 -0.790649,0.56379 -1.099611,1.01073 -0.817732,0.69963 -1.871205,1.90376 -0.171538,0.19607 -0.238601,0.58754 -0.498676,0.60254 -0.341099,0.0197 -0.643867,0.0426 -0.930693,0.0662 -0.226515,0.5438 -0.635313,1.11396 -1.270725,1.65985 -0.250209,0.21495 -0.505783,0.42413 -0.750859,0.64492 -0.0182,0.0164 -0.03652,0.0327 -0.05478,0.0491 -0.131694,0.33661 -0.315648,0.68877 -0.568958,1.05368 -0.712896,1.02699 -1.422476,2.05736 -2.122868,3.09335 -0.203192,0.49287 -0.419574,0.97658 -0.644404,1.4516 -0.02225,0.0604 -0.04401,0.12112 -0.06666,0.18138 -0.08975,0.2389 -0.181943,0.47675 -0.272852,0.7152 -0.04779,0.13201 -0.07268,0.27441 -0.143142,0.39584 -0.02508,0.0432 0.01286,-0.19826 5.29e-4,-0.14986 -0.05752,0.22591 -0.06835,0.46295 -0.136943,0.68575 -0.07308,0.23739 -0.298939,0.66576 -0.462505,0.87746 -0.02474,0.032 0.02508,-0.0767 0.03772,-0.11524 -0.0601,0.12456 -0.1147,0.2519 -0.180351,0.37363 -0.0064,0.0121 0.02109,-0.18576 -0.0341,0.0212 -0.05484,0.17451 -0.09258,0.35407 -0.150378,0.52762 -0.220898,0.66323 -0.331079,0.83567 -0.655775,1.52755 -0.152194,0.23952 -0.291129,0.488 -0.453718,0.72037 -0.01582,0.0847 -0.03131,0.16944 -0.05116,0.25322 -0.320495,1.35241 -0.294439,1.13419 -0.824241,2.64945 -0.296598,0.71524 -0.56557,1.44255 -0.889868,2.1456 -0.302506,0.65587 -0.662985,1.28358 -0.989086,1.92805 -0.300609,0.59409 -0.609053,1.18426 -0.890903,1.78749 -0.185121,0.3962 -0.341878,0.80512 -0.50901,1.20923 -0.127098,0.30731 -0.232289,0.62399 -0.373624,0.92501 -0.173715,0.37001 -0.380344,0.72389 -0.570507,1.08572 -1.132219,-0.37235 -2.298468,-0.65506 -3.409093,-1.08417 v 56.3345 h 59.331214 c -0.0487,-0.0332 -0.09279,-0.0656 -0.12764,-0.0956 -0.320379,-0.27619 -0.792972,-0.46735 -0.923457,-0.86971 -0.228938,-0.70594 -0.206015,-1.49381 -0.0801,-2.22519 0.0458,-0.26603 0.311404,-0.54694 0.59893,-0.7922 -0.44504,-1.36218 0.969539,-2.88662 3.669543,-2.41226 0.124291,0.0218 0.116824,0.0204 0.201022,0.0351 0.479846,-0.11084 0.9597,-0.18923 1.518254,-0.29145 0.699092,-0.12794 1.399804,-0.24732 2.10013,-0.36845 0.21649,-0.4076 0.5457,-0.83193 1.006139,-1.25522 0.352909,-0.32444 0.71878,-0.65569 1.149802,-0.87592 0.178417,-0.0912 0.369861,-0.1544 0.550871,-0.2403 0.01415,-0.007 -0.05991,0.01 -0.04703,10e-4 0.06764,-0.0467 0.144394,-0.0788 0.216522,-0.11834 0.324289,-0.17981 0.676894,-0.24502 1.022678,-0.3576 0.05412,-0.0176 -0.110032,0.0298 -0.165883,0.0408 -0.0056,0.001 0.0077,-0.009 0.01291,-0.0109 0.130905,-0.0587 0.262747,-0.11478 0.394292,-0.17208 0.397,-0.17285 0.688483,-0.25006 0.895035,-0.25115 0.382977,-0.002 0.47493,0.25791 0.413928,0.65474 0.06313,-0.0211 0.129392,-0.0423 0.190685,-0.0636 7.94e-4,-2.5e-4 0.0019,-7.9e-4 0.0026,-0.001 0.04161,-0.0165 0.08402,-0.0333 0.139528,-0.0527 0.09081,-0.0318 0.181869,-0.0628 0.272849,-0.0941 0.218366,-0.0779 0.405654,-0.14426 0.725022,-0.25734 0.799412,-0.32321 1.347194,-0.48128 2.037085,-0.95809 0.35106,-0.24259 0.514501,-0.63227 0.785474,-0.93947 0.19112,-0.21667 0.40132,-0.41593 0.60203,-0.62374 0.80286,-0.54861 0.72811,-0.53713 1.45366,-0.91984 0.19128,-0.10089 0.3977,-0.17409 0.58033,-0.2899 0.17001,-0.10779 0.78033,-0.72449 0.85886,-0.79892 0.13119,-0.20305 0.24552,-0.37595 0.30128,-0.45424 0.64372,-0.90381 1.33408,-1.71089 2.13216,-2.48201 0.34436,-0.33273 0.72228,-0.62843 1.08366,-0.94258 0.93164,-0.69401 0.6434,-0.52393 1.55494,-1.05007 0.0245,-0.0141 0.0496,-0.0273 0.0744,-0.0408 0.17733,-0.18899 0.36384,-0.36882 0.5457,-0.55346 0.19233,-0.12361 0.27223,-0.17689 0.37724,-0.24598 -0.2254,-0.22257 -0.44906,-0.44633 -0.67386,-0.66662 -0.0673,-0.0659 0.13707,-0.12919 0.20257,-0.19689 0.0634,-0.0654 0.10655,-0.11126 0.15761,-0.16485 -0.0468,-0.12484 0.1264,-0.21708 0.29042,-0.31161 0.15827,-0.17504 0.30433,-0.34463 0.57723,-0.65422 0.13614,-0.1416 0.27341,-0.28294 0.40876,-0.4253 0.2675,-0.28137 0.47943,-0.55346 0.84904,-0.73484 0.0208,-0.0102 0.0424,-0.019 0.0636,-0.0284 0.63012,-0.62262 1.24081,-1.26469 1.77405,-1.973 0.096,-0.19736 0.19218,-0.39466 0.29197,-0.58912 0.21723,-0.36981 0.37698,-0.6652 0.52503,-0.89141 0.0182,-0.0414 0.0365,-0.0825 0.0548,-0.12403 0.16813,-0.48159 0.35823,-0.95093 0.58859,-1.40663 0.0724,-0.14322 0.14218,-0.28847 0.22428,-0.42633 0.0104,-0.0175 0.022,-0.0343 0.0326,-0.0517 -0.20997,-0.73131 -0.1041,-1.6702 0.53226,-2.69441 0.20967,-0.33745 0.0993,-0.16848 0.3328,-0.50694 0.0578,-0.0805 0.12002,-0.15815 0.17312,-0.24185 0.22862,-0.36079 0.42256,-0.74277 0.6475,-1.10587 0.14108,-0.22774 0.29246,-0.44902 0.44442,-0.66973 -0.0795,-0.0962 -0.15623,-0.20054 -0.22944,-0.31574 -0.0991,-0.15595 -0.21734,-0.30152 -0.29714,-0.46819 -0.33594,-0.70185 -0.39425,-1.06218 -0.32505,-1.79834 0.0566,-0.34938 0.0485,-0.33935 0.18035,-0.8077 0.0188,-0.0669 0.0512,-0.12921 0.0755,-0.19431 0.0685,-0.18307 0.12979,-0.36866 0.20309,-0.54983 0.0598,-0.14783 0.164,-0.27627 0.1974,-0.43615 0.0985,-0.30818 0.17406,-0.56198 0.29404,-0.86352 0.43713,-1.09864 0.0567,-0.14385 0.32608,-0.70693 0.5086,-1.06295 -0.022,-0.0202 0.42633,-0.8878 0.057,-0.1163 0.11315,-0.23299 0.17105,-0.34882 0.0276,-0.0553 0.0639,-0.10653 0.0858,-0.16433 0.0864,-0.22747 0.19756,-0.76579 0.29456,-0.91364 0.51189,-0.78069 0.81527,-1.09068 1.14825,-1.09864 0.55496,-0.0132 1.19129,0.81272 3.00912,1.70016 -0.0189,-0.0974 -0.0424,-0.19378 -0.0568,-0.29198 -0.006,-0.0405 0.0215,0.0792 0.0315,0.11886 0.11692,0.47016 0.0952,0.34619 0.16123,0.77205 0.0387,0.24951 0.0535,0.16465 0.0259,0.28318 0.0387,0.13571 0.0828,0.27012 0.11627,0.40721 0.002,0.006 -0.0121,-0.003 -0.0181,-0.005 -0.0181,-0.0248 -0.0357,-0.0496 -0.0537,-0.0744 0.0153,0.0501 0.0478,0.0933 0.0734,0.13901 0.3416,0.61063 0.135,0.19704 0.45423,0.89504 0.0937,0.28531 0.20732,0.56467 0.28112,0.85576 0.0622,0.24541 0.0918,0.49841 0.12557,0.74931 0.10721,0.79638 0.0946,1.60802 -0.0109,2.40347 -0.0349,0.19642 -0.0665,0.35897 -0.0909,0.55449 -0.0254,0.2036 -0.0334,0.40959 -0.0708,0.61133 -0.11243,0.60612 -0.35556,1.16755 -0.57103,1.74098 -0.0885,0.25988 -0.17732,0.51932 -0.26562,0.77928 -0.0654,0.19255 -0.13755,0.38343 -0.19585,0.57826 -0.046,0.15352 -0.0754,0.3113 -0.11679,0.46612 -0.0564,0.21114 -0.10312,0.42553 -0.17622,0.63148 -0.13905,0.39167 -0.24062,0.54216 -0.43045,0.87334 -0.0497,0.0728 -0.10984,0.13949 -0.14884,0.21859 -0.20248,0.41072 -0.40773,1.0108 -0.52503,1.43195 -0.10666,0.38298 -0.18284,0.77362 -0.28215,1.15859 -0.32092,1.24469 -0.26699,1.02139 -0.65008,2.15697 -0.72691,2.15468 -2.19365,2.70765 -3.20292,2.14044 -0.0265,0.0691 -0.0535,0.13802 -0.0822,0.20619 -0.16378,0.38997 -0.35283,0.7688 -0.51108,1.16117 -0.24466,0.47337 -0.47153,0.96029 -0.75603,1.4118 -0.29204,0.46348 -0.65209,0.88546 -1.01957,1.28932 -0.18864,0.16272 -0.36608,0.33898 -0.56586,0.48783 -0.39915,0.29744 -0.62844,0.39857 -1.04387,0.6072 -0.0946,0.0475 -0.72042,0.37846 -0.92345,0.43046 -0.0176,0.004 -0.0209,-0.0297 -0.0315,-0.0444 0.0106,-0.18667 0.0103,-0.12587 -0.093,0.047 0.23041,0.41275 0.41316,0.83393 0.39016,1.29139 -0.0348,0.69181 -0.43898,1.06877 -0.9157,1.3348 -0.0351,0.0449 -0.066,0.087 -0.0894,0.12351 -0.83308,1.29991 -1.0353,1.38864 -2.14509,2.53835 -0.60966,0.45421 -1.19801,0.93833 -1.82883,1.3627 -0.13828,0.093 -0.31458,0.20563 -0.50746,0.32453 0.0584,0.10315 0.117,0.20636 0.17104,0.31058 0.21343,0.41154 -1.23183,1.78314 -1.36322,1.90892 -0.0535,0.0513 -0.12121,0.0848 -0.18655,0.12093 -0.031,0.0993 -0.0665,0.19629 -0.12248,0.28318 -0.25042,0.38846 -0.53243,0.76504 -0.87539,1.07487 -0.44656,0.40343 -1.2503,0.6348 -1.79266,0.83148 -0.53022,0.17385 -1.61614,0.51415 -2.14094,0.74517 -0.902252,0.39713 -0.864512,0.49096 -1.705332,0.97824 -0.887031,0.51407 -1.109577,0.5764 -2.093412,1.0082 -1.156293,0.43291 -2.314152,0.86333 -3.438033,1.37666 -0.512482,0.23407 -1.089205,0.51736 -1.575099,0.81391 -0.230378,0.14061 -0.450064,0.29871 -0.674894,0.44803 -0.01474,0.009 -0.02487,0.0152 -0.03927,0.0238 h 33.46971 v -62.53157 c -0.0158,-0.004 -0.0318,-0.008 -0.0481,-0.0129 -0.14478,-0.0412 -0.21764,-0.0822 -0.35088,-0.14624 l -0.0935,-0.0512 c -0.0113,-0.006 -0.0222,-0.0131 -0.0341,-0.0181 -0.0835,-0.0349 -0.068,-0.0154 -0.15865,-0.0672 -0.12218,-0.0699 -0.13711,-0.0924 -0.24804,-0.18861 -0.13543,-0.13791 -0.20532,-0.20091 -0.32505,-0.35916 -0.0441,-0.0582 -0.0826,-0.1202 -0.12092,-0.18242 -0.0889,-0.1441 -0.16132,-0.29674 -0.22428,-0.45372 -0.16649,-0.41533 0.0156,-0.68026 0.25012,-0.68058 0.16046,-1.8e-4 0.34535,0.12351 0.46044,0.40721 0.0488,0.1202 0.10331,0.23722 0.17311,0.34676 0.0301,0.0473 0.0602,0.0952 0.0946,0.13952 0.0645,0.0829 0.15988,0.17281 0.23358,0.24651 0.0272,0.0226 0.053,0.0474 0.0816,0.0682 0.005,0.003 0.0105,0.004 0.0165,0.004 0.002,-0.001 -0.003,-0.004 -0.004,-0.006 0.006,0.001 0.0121,0.002 0.0181,0.005 0.12144,0.0515 0.11419,0.0515 0.23927,0.11782 0.0134,0.007 0.0267,0.0136 0.0398,0.0202 v -35.42782 z m -17.174663,14.67249 c 0.13802,-0.0912 0.244129,-0.15801 0.31781,-0.20102 -0.337442,-0.0375 -0.710303,-0.12913 -1.066086,-0.19482 0.05303,0.10528 0.09971,0.19923 0.156581,0.31109 0.103246,0.20309 0.357126,0.1731 0.591695,0.0847 z m 0.31781,-0.20102 c 0.01924,0.002 0.03838,0.004 0.05736,0.006 0.119094,-0.0814 0.143705,-0.1244 -0.05736,-0.006 z m 1.34152,-1.07694 c -0.0464,0.13104 -0.09907,0.26556 -0.160714,0.40618 0.06643,-0.0626 0.160986,-0.13384 0.202055,-0.18862 z m -12.250415,4.2571 c -0.101042,0.0171 -0.463471,0.39453 -0.522965,0.81856 0.135991,-0.16979 0.267121,-0.34321 0.395325,-0.51883 0.162274,-0.2223 0.179411,-0.30849 0.12764,-0.29973 z m -1.382345,13.53664 c -7.94e-4,5.3e-4 -0.0021,0.004 -0.0036,0.0103 -0.01815,0.0773 -0.03237,0.15548 -0.04702,0.23358 0.01151,-0.0263 0.02265,-0.0525 0.0279,-0.0703 0.01357,-0.0459 0.02786,-0.17725 0.02273,-0.17364 z m 76.255813,47.84411 c 0.0748,-0.0431 -0.15495,0.0768 -0.22945,0.12041 -0.006,0.003 -0.0153,0.0119 -0.0233,0.0176 0.0846,-0.0452 0.1696,-0.09 0.2527,-0.13798 z m -3.29592,11.77603 c -0.002,-0.003 -0.003,-0.004 -0.005,0.001 -0.03,0.0724 -0.053,0.1482 -0.0749,0.22428 0.0289,-0.0543 0.0567,-0.10879 0.0806,-0.16537 0.006,-0.0137 0.004,-0.0502 -5.3e-4,-0.0599 z m -19.838071,7.1484 c -0.03749,0.0222 -0.07548,0.0437 -0.11317,0.0656 -0.0013,0.0165 -0.01516,0.0604 -0.0031,0.0491 0.04492,-0.0419 0.07713,-0.0763 0.116271,-0.11472 z" /></clipPath><clipPath
       clipPathUnits="userSpaceOnUse"
       id="clipPath5110"><path
         id="path5112"
         style="fill:#ff0000;fill-opacity:1;fill-rule:nonzero;stroke:none;stroke-width:0.264583"
         d="M 13.995489,103.21972 V 217.7843 H 126.44341 V 103.21972 Z m 47.926273,9.96735 c 0.486436,0.21414 0.977866,0.41872 1.468644,0.62373 5.29e-4,1.7e-4 0.0011,2.1e-4 0.0016,5.3e-4 0.859401,0.26773 1.700086,0.63475 2.56212,0.88832 0.01228,-0.0427 0.02595,-0.0844 0.03876,-0.12558 -0.0369,-0.0744 -0.06314,-0.1533 -0.05529,-0.23202 0.0024,-0.0238 0.04988,-0.0121 0.06511,-0.0305 0.01873,-0.0226 0.02326,-0.11141 0.02894,-0.0827 0.02447,0.12381 -0.004,0.23325 -0.03876,0.3452 0.04049,0.0816 0.09396,0.1579 0.131775,0.22324 1.966667,3.39828 -0.368157,5.90677 -2.65617,3.55173 -0.103868,0.0277 -0.207846,0.0539 -0.313674,0.0723 -0.226814,0.0393 -0.457436,0.0504 -0.686779,0.0703 -0.199046,0.0173 -0.398198,0.0329 -0.597382,0.0486 -0.132654,0.0401 -0.263996,0.0838 -0.390673,0.13952 -0.342355,0.15056 -0.663546,0.34571 -0.990637,0.5271 -0.444857,0.24669 -0.881949,0.50711 -1.324983,0.75706 -0.500261,0.28224 -1.00321,0.55939 -1.504818,0.83923 -2.284383,1.09194 -1.431398,0.74591 -3.941363,1.67483 -0.527883,0.19537 -1.065014,0.36562 -1.590082,0.56844 -0.576268,0.22261 -1.123834,0.51513 -1.698604,0.74156 -0.342474,0.13491 -0.692073,0.25039 -1.03818,0.37569 -0.01524,0.005 -0.03073,0.01 -0.04599,0.015 -0.184584,0.68797 -0.727163,1.42366 -1.733228,2.04742 -0.311589,0.19321 0.165823,-0.10564 -0.555521,0.37828 -0.136036,0.0913 -0.278051,0.17384 -0.413412,0.26614 -0.129331,0.0882 -0.232058,0.32502 -0.380338,0.27492 -0.0088,-0.003 -0.01151,-0.008 -0.01654,-0.0119 -0.02614,0.0567 -0.05094,0.11287 -0.07958,0.17105 -0.177721,0.36104 -0.548923,0.42517 -0.988055,0.38447 -0.08849,0.0604 -0.221909,0.13722 -0.375171,0.19482 -0.01005,0.007 -0.01283,0.008 -0.02326,0.0145 -0.269587,0.17914 -0.527087,0.37589 -0.790649,0.56379 -1.099609,1.01073 -0.817735,0.69963 -1.871202,1.90376 -0.171538,0.19607 -0.238604,0.58755 -0.498679,0.60255 -0.341098,0.0197 -0.643869,0.0425 -0.930693,0.0661 -0.226513,0.5438 -0.635312,1.11395 -1.270722,1.65984 -0.250209,0.21495 -0.505783,0.42414 -0.750859,0.64493 -0.0182,0.0164 -0.03652,0.0327 -0.05478,0.0491 -0.131699,0.33661 -0.315648,0.68877 -0.568958,1.05368 -0.712896,1.02699 -1.422479,2.05736 -2.122868,3.09335 -0.203192,0.49287 -0.419571,0.97657 -0.644406,1.45159 -0.02225,0.0604 -0.04402,0.12113 -0.06666,0.18139 -0.08975,0.2389 -0.181943,0.47675 -0.272852,0.7152 -0.04779,0.13201 -0.07268,0.27441 -0.143144,0.39584 -0.02508,0.0432 0.01286,-0.19826 5.29e-4,-0.14986 -0.05752,0.22591 -0.06835,0.46294 -0.136943,0.68574 -0.07307,0.23739 -0.298937,0.66577 -0.462505,0.87747 -0.02474,0.032 0.02508,-0.0767 0.03772,-0.11524 -0.0601,0.12456 -0.114699,0.25189 -0.180351,0.37362 -0.0063,0.0121 0.02109,-0.18578 -0.03411,0.0212 -0.05484,0.17451 -0.09258,0.35407 -0.150379,0.52762 -0.220898,0.66323 -0.331078,0.83567 -0.655772,1.52755 -0.152196,0.23952 -0.291132,0.488 -0.453721,0.72037 -0.01582,0.0847 -0.03131,0.16944 -0.05116,0.25322 -0.320495,1.35239 -0.294439,1.13419 -0.82424,2.64945 -0.296598,0.71524 -0.565571,1.44255 -0.889869,2.1456 -0.302504,0.65587 -0.662986,1.28358 -0.989087,1.92805 -0.300607,0.59409 -0.609052,1.18426 -0.890901,1.78749 -0.185121,0.3962 -0.341881,0.80512 -0.509013,1.20923 -0.127098,0.30731 -0.232286,0.62398 -0.373621,0.925 -0.173707,0.37001 -0.380344,0.7239 -0.570508,1.08573 -1.29052,-0.42441 -2.625465,-0.73224 -3.871598,-1.27331 -0.124225,-0.0539 -0.0032,-0.27091 0.0036,-0.40618 0.03666,-0.72533 0.238529,-1.41968 0.451652,-2.10943 0.03175,-0.0742 0.07134,-0.14573 0.0956,-0.22273 0.07685,-0.24382 0.136744,-0.60177 0.179834,-0.84491 0.179981,-1.01535 0.01839,-0.1897 0.192236,-1.00924 0.02809,-0.13239 0.05489,-0.26482 0.08217,-0.39739 0.04259,-0.31407 0.08913,-0.66975 0.137976,-0.98443 0.02116,-0.13634 0.04424,-0.27243 0.07131,-0.40773 0.0064,-0.0318 0.01894,-0.0624 0.02274,-0.0946 0.01244,-0.10548 0.01734,-0.21195 0.02584,-0.31781 0.120969,-0.0761 0.0027,0.003 0.0098,-0.38912 0.01234,-0.68626 0.09452,-1.37294 0.210323,-2.04846 0.07904,-0.36906 0.289955,-1.36329 0.363285,-1.65158 0.198287,-0.77956 0.474223,-1.67395 0.754993,-2.41949 0.115019,-0.30542 0.258008,-0.59957 0.388607,-0.89865 0.06451,-0.14771 0.131215,-0.29464 0.196887,-0.44183 0.283378,-0.60745 0.344201,-0.79823 0.750342,-1.3808 0.08565,-0.12285 0.179112,-0.23983 0.274918,-0.35501 -0.129101,-0.18888 -0.248349,-0.38372 -0.345198,-0.5917 -0.01138,-0.006 -0.02267,-0.0122 -0.03411,-0.0181 -7.94e-4,-2.6e-4 -0.0013,-1e-4 -0.0021,-5.3e-4 -0.04525,0.0738 -0.09066,0.1474 -0.135908,0.22117 0.04568,-0.0728 0.06072,-0.25656 0.135908,-0.22117 0.0054,-0.009 0.01063,-0.0177 0.01602,-0.0263 -0.0085,-0.019 -0.01761,-0.0376 -0.02584,-0.0568 -0.168804,-0.39205 0.263154,-0.71267 0.67076,-1.02836 0.457645,-0.78787 1.029642,-1.76675 1.386478,-2.32699 0.396584,-0.62264 0.792292,-1.24708 1.232483,-1.83968 1.053183,-1.41782 2.278084,-2.69154 3.618902,-3.83749 0.346326,-0.296 0.688663,-0.52109 1.020609,-0.68885 0.437301,-0.65675 0.930899,-1.28516 1.382861,-1.92908 0.154733,-0.20209 0.301482,-0.41128 0.464571,-0.60668 0.191093,-0.22895 0.405868,-0.43701 0.597379,-0.6656 0.137541,-0.16418 0.257683,-0.34209 0.388607,-0.51159 0.474903,-0.61481 0.750273,-1.0165 1.392679,-1.51929 0.325427,-0.2547 0.698185,-0.44166 1.047483,-0.66249 0.337455,-0.1146 0.673912,-0.23307 1.012341,-0.34468 0.05454,-0.0434 0.109214,-0.0869 0.163814,-0.13023 0.729189,-0.54221 0.786979,-0.65968 1.634008,-0.99735 0.297897,-0.11876 0.608923,-0.20248 0.917774,-0.28888 0.555598,-0.15542 1.118568,-0.28495 1.679485,-0.42116 1.470683,-1.00671 3.217309,-1.46556 4.808489,-2.23294 0.131998,-0.0637 0.257363,-0.14012 0.386025,-0.21032 0.05428,-0.0391 0.113101,-0.0725 0.162779,-0.11731 0.01103,-0.01 -0.05473,0.0198 -0.04341,0.0104 0.280387,-0.23788 0.509664,-0.38413 0.817004,-0.5917 0.147373,-0.0995 0.291224,-0.20461 0.443384,-0.29662 0.232148,-0.14041 0.472762,-0.26707 0.709001,-0.40049 0.750657,-0.43373 0.764029,-0.4731 1.659332,-0.82786 0.3156,-0.12506 0.641302,-0.22308 0.962213,-0.33383 0.923009,-0.31857 1.852416,-0.61724 2.76779,-0.95704 0.231838,-0.0629 0.459777,-0.14221 0.695566,-0.18811 0.477234,-0.093 1.091207,-0.1341 1.591632,-0.17156 0.149673,-0.0368 0.300676,-0.0668 0.451655,-0.0966 -0.0011,-0.30635 -0.0582,-0.71002 0.185518,-0.69039 0.0047,2.6e-4 0.0093,0.001 0.01394,0.002 0.02334,-0.10058 0.06134,-0.19776 0.09147,-0.29662 z m -17.118335,14.69677 c 0.138022,-0.0912 0.244131,-0.15801 0.317812,-0.20102 -0.337442,-0.0375 -0.710303,-0.12913 -1.066086,-0.19482 0.05303,0.10528 0.09971,0.19923 0.156581,0.31109 0.103243,0.20309 0.357124,0.1732 0.591693,0.0847 z m 0.317812,-0.20102 c 0.01923,0.002 0.03838,0.004 0.05736,0.006 0.119094,-0.0814 0.143706,-0.12429 -0.05736,-0.006 z m 1.341519,-1.07693 c -0.0464,0.13104 -0.09907,0.26555 -0.160713,0.40617 0.06643,-0.0626 0.160986,-0.13384 0.202055,-0.18862 z m -12.250414,4.2571 c -0.101042,0.0171 -0.463471,0.39453 -0.522965,0.81856 0.135985,-0.16979 0.267118,-0.34322 0.395322,-0.51884 0.162274,-0.2223 0.179414,-0.30848 0.127643,-0.29972 z m 31.0472,8.17728 c 0.619498,-0.005 0.883452,0.54745 0.618051,1.27692 0.284295,0.45121 0.101089,0.54544 -0.25735,0.50902 -0.04572,0.0708 -0.09642,0.14191 -0.151413,0.21394 -0.02273,0.047 -0.04772,0.0943 -0.07493,0.14314 -0.02849,0.0511 -0.07639,0.087 -0.125058,0.12196 -0.04784,0.19658 -0.09162,0.39396 -0.125055,0.59324 0.03186,-0.002 0.06681,-0.005 0.108003,-0.007 0.03713,-0.002 -0.116147,0.0558 -0.110072,0.0191 5.29e-4,-0.004 0.0013,-0.008 0.0021,-0.0119 -0.403829,0.0297 -0.116708,0.0496 -0.577226,-0.0139 -0.438711,-0.15149 -0.641974,-0.16316 -0.954463,-0.63304 -0.282102,-0.42419 -0.189455,-0.87494 0.0181,-1.30224 0.107379,-0.22108 0.32343,-0.34606 0.514178,-0.47594 v -5.3e-4 c 0.440497,-0.29994 0.818492,-0.43011 1.115179,-0.43253 z m 0.0093,2.26498 c 0.0027,-0.0112 0.0055,-0.0224 0.0083,-0.0336 -0.02109,0.0236 -0.04248,0.0472 -0.0646,0.0708 -0.0064,0.007 -0.02611,0.0267 -0.01913,0.0207 0.02352,-0.0206 0.04946,-0.0392 0.07545,-0.0579 z m 0.0083,-0.0336 c 0.06943,-0.0775 0.133117,-0.15476 0.191717,-0.23151 0.03632,-0.075 0.06668,-0.14823 0.08785,-0.22118 -0.05036,-0.007 -0.103868,-0.0154 -0.159163,-0.0259 -0.03994,0.15954 -0.0812,0.31882 -0.120404,0.47853 z m 0.120404,-0.47853 c 0.04439,-0.17732 0.08684,-0.35492 0.122473,-0.53381 -0.0066,-0.0151 -0.01363,-0.0306 -0.02119,-0.046 -0.119126,-0.24194 -0.214762,-0.29736 -0.380339,-0.41082 -0.164385,-0.0542 0.02148,5.3e-4 -0.219622,-0.005 -0.0508,0.28172 -0.118513,0.56032 -0.19017,0.83767 0.234882,0.0556 0.477322,0.11825 0.688846,0.15813 z m 0.122473,-0.53381 c 0.08787,0.20168 0.08883,0.37997 0.03669,0.55965 0.0218,0.003 0.04288,0.005 0.06356,0.007 0.113335,-0.17557 0.198324,-0.34679 0.25735,-0.50902 -0.02529,-0.0401 -0.05393,-0.0827 -0.08682,-0.12867 -0.137252,-0.1917 -0.100518,-0.15856 -0.216008,-0.24546 -0.01511,0.10593 -0.03389,0.21137 -0.05478,0.31626 z m -0.09198,-0.42168 c 0.0037,0.002 0.01572,0.006 0.02376,0.01 -0.0013,-0.001 -0.0021,-0.002 -0.0036,-0.003 -0.01098,-0.004 -0.01675,-0.006 -0.02016,-0.007 z m -0.995289,1.90686 c 0.0048,0.0164 0.05957,0.0328 0.04496,0.0253 -0.01513,-0.008 -0.03002,-0.0168 -0.04496,-0.0253 z m -31.602722,2.65513 c -7.94e-4,5.3e-4 -0.0021,0.004 -0.0036,0.0103 -0.01815,0.0773 -0.03238,0.15547 -0.04703,0.23358 0.01151,-0.0263 0.02265,-0.0525 0.02791,-0.0703 0.01357,-0.0459 0.02788,-0.17724 0.02273,-0.17363 z m 90.49215,2.89078 c 0.16046,-2.1e-4 0.34535,0.1235 0.46044,0.40721 0.0488,0.12018 0.10331,0.23721 0.17311,0.34675 0.0301,0.0473 0.0602,0.0952 0.0946,0.13953 0.0645,0.0829 0.15988,0.17279 0.23358,0.24649 0.0272,0.0226 0.0531,0.0474 0.0817,0.0682 0.005,0.003 0.0105,0.004 0.0165,0.004 0.002,-0.001 -0.003,-0.004 -0.004,-0.006 0.006,0.001 0.0121,0.002 0.0181,0.005 0.12144,0.0515 0.11418,0.0515 0.23926,0.11781 0.11194,0.0581 0.21004,0.10276 0.33641,0.11318 0.0653,0.006 0.10087,-8e-4 0.16537,-0.005 0.0369,-0.003 0.0737,-0.006 0.11058,-0.009 0.0723,-0.0154 0.11965,-0.0237 0.17209,-0.0377 0.024,-0.0171 0.0721,-0.0373 0.15089,-0.0615 0.0174,-0.005 0.0676,-0.0259 0.0522,-0.016 -0.0284,0.0184 -0.0602,0.0309 -0.092,0.0424 -0.044,0.0159 -0.0785,0.0265 -0.1111,0.0351 -0.19506,0.13918 1.21072,0.0824 0.67696,0.48938 -0.0586,0.0447 -0.11262,0.0966 -0.17622,0.13384 -0.0549,0.0321 -0.11653,0.0514 -0.17673,0.0724 -0.18092,0.0616 -0.24478,0.066 -0.43253,0.10077 -0.0887,0.007 -0.21066,0.0206 -0.29766,0.0186 -0.13729,-0.003 -0.25352,-0.0189 -0.38654,-0.0568 -0.14484,-0.0412 -0.21764,-0.0823 -0.35088,-0.14625 l -0.0935,-0.0512 c -0.0113,-0.006 -0.0222,-0.0136 -0.0341,-0.0186 -0.0835,-0.0349 -0.068,-0.0154 -0.15865,-0.0672 -0.12218,-0.0699 -0.13712,-0.0924 -0.24805,-0.18862 -0.13544,-0.1379 -0.20531,-0.20092 -0.32504,-0.35915 -0.0441,-0.0582 -0.0826,-0.12022 -0.12093,-0.18242 -0.0889,-0.1441 -0.16132,-0.29674 -0.22427,-0.45372 -0.16649,-0.41535 0.0156,-0.68025 0.25011,-0.68057 z m -3.56929,20.90157 c 0.55497,-0.0133 1.19129,0.81271 3.00912,1.70015 -0.0189,-0.0974 -0.0425,-0.19377 -0.0568,-0.29197 -0.006,-0.0405 0.0215,0.0792 0.0315,0.11886 0.11693,0.47016 0.0952,0.34618 0.16123,0.77204 0.0387,0.24951 0.0534,0.16466 0.0258,0.28319 0.0387,0.13571 0.0828,0.27012 0.11628,0.40721 0.002,0.006 -0.0121,-0.003 -0.0181,-0.005 -0.0181,-0.0248 -0.0356,-0.0496 -0.0537,-0.0744 0.0153,0.0501 0.0478,0.0933 0.0734,0.13901 0.3416,0.61063 0.135,0.19703 0.45423,0.89503 0.0937,0.28531 0.20732,0.56468 0.28112,0.85577 0.0622,0.24539 0.0918,0.4984 0.12558,0.7493 0.10721,0.79638 0.0945,1.60804 -0.0109,2.40347 -0.0349,0.19642 -0.0665,0.35897 -0.0909,0.55449 -0.0254,0.2036 -0.0334,0.40959 -0.0708,0.61133 -0.11243,0.60612 -0.35557,1.16755 -0.57103,1.74098 -0.0885,0.25988 -0.17733,0.51932 -0.26561,0.77928 -0.0654,0.19255 -0.13756,0.38343 -0.19586,0.57826 -0.046,0.15352 -0.0754,0.31132 -0.11679,0.46612 -0.0564,0.21114 -0.10311,0.42554 -0.17621,0.63149 -0.13905,0.39167 -0.24063,0.54215 -0.43047,0.87333 -0.0497,0.0728 -0.10983,0.13949 -0.14883,0.21859 -0.20248,0.41072 -0.40773,1.01081 -0.52503,1.43196 -0.10666,0.38298 -0.18285,0.77361 -0.28215,1.15858 -0.32093,1.24469 -0.26699,1.0214 -0.65009,2.15698 -0.7269,2.15468 -2.19364,2.70763 -3.20291,2.14044 -0.0265,0.0691 -0.0535,0.13801 -0.0822,0.20618 -0.16378,0.38997 -0.35284,0.7688 -0.51108,1.16117 -0.24466,0.47336 -0.47153,0.96027 -0.75603,1.4118 -0.29204,0.46346 -0.65208,0.88547 -1.01958,1.28933 -0.18862,0.1627 -0.36608,0.33898 -0.56585,0.48783 -0.39915,0.29745 -0.62844,0.39858 -1.04387,0.60719 -0.0946,0.0475 -0.72043,0.37846 -0.92345,0.43047 -0.0176,0.004 -0.0209,-0.0297 -0.0315,-0.0444 0.0106,-0.18669 0.0103,-0.12584 -0.093,0.047 0.23041,0.41275 0.41315,0.83396 0.39015,1.2914 -0.0348,0.69182 -0.43898,1.06877 -0.9157,1.3348 -0.0351,0.0449 -0.066,0.087 -0.0894,0.12351 -0.83308,1.29991 -1.0353,1.38863 -2.14509,2.53834 -0.60966,0.4542 -1.19801,0.93832 -1.82883,1.36271 -0.13828,0.093 -0.31458,0.20562 -0.50746,0.32453 0.0584,0.10315 0.11701,0.20634 0.17105,0.31057 0.21341,0.41153 -1.23184,1.78315 -1.36323,1.90893 -0.0535,0.0513 -0.12122,0.0849 -0.18655,0.12092 -0.031,0.0993 -0.0665,0.19629 -0.12247,0.28319 -0.25042,0.38844 -0.53244,0.76504 -0.8754,1.07487 -0.44656,0.40341 -1.2503,0.63477 -1.79266,0.83147 -0.53023,0.17385 -1.61613,0.51415 -2.14095,0.74518 -0.902252,0.39712 -0.864512,0.49096 -1.705326,0.97823 -0.887031,0.51408 -1.10958,0.57641 -2.093415,1.00821 -1.156287,0.43293 -2.314151,0.86332 -3.438033,1.37666 -0.512479,0.23406 -1.089202,0.51736 -1.575096,0.8139 -0.230378,0.14061 -0.450064,0.29872 -0.674894,0.44804 -0.679865,0.40363 -0.984112,0.63464 -1.795756,0.86455 -0.717915,0.20383 -1.506207,0.23815 -2.245857,0.20515 -0.42943,-0.0192 -0.861492,-0.0421 -1.284161,-0.12041 -0.442071,-0.0819 -0.866762,-0.23908 -1.300178,-0.35863 -0.201176,-0.10537 -0.905942,-0.43934 -1.164786,-0.66249 -0.320379,-0.27619 -0.792975,-0.46736 -0.923459,-0.86972 -0.228942,-0.70594 -0.206013,-1.4938 -0.0801,-2.22518 0.0458,-0.26603 0.311404,-0.54694 0.59893,-0.7922 -0.44504,-1.36219 0.969544,-2.88662 3.669543,-2.41226 0.124291,0.0218 0.116821,0.0205 0.201022,0.0351 0.479841,-0.11084 0.9597,-0.18923 1.518254,-0.29145 0.699087,-0.12795 1.399804,-0.24734 2.10013,-0.36846 0.21649,-0.40761 0.5457,-0.83192 1.006139,-1.25522 0.352909,-0.32444 0.718778,-0.65569 1.149802,-0.87591 0.178412,-0.0912 0.369861,-0.1544 0.550868,-0.2403 0.01416,-0.007 -0.05992,0.01 -0.04702,0.001 0.06764,-0.0467 0.144396,-0.0788 0.216524,-0.11834 0.324289,-0.17981 0.676894,-0.24502 1.022678,-0.3576 0.05412,-0.0176 -0.110032,0.0298 -0.165883,0.0408 -0.0056,10e-4 0.0077,-0.009 0.01291,-0.0109 0.130905,-0.0587 0.262744,-0.11478 0.394292,-0.17208 0.396994,-0.17285 0.688483,-0.25006 0.895036,-0.25115 0.382973,-0.002 0.474929,0.25791 0.413927,0.65474 0.06313,-0.0211 0.129397,-0.0423 0.190685,-0.0636 7.94e-4,-2.5e-4 0.0019,-7.9e-4 0.0026,-0.001 0.04161,-0.0165 0.08402,-0.0333 0.139525,-0.0527 0.09081,-0.0318 0.181872,-0.0627 0.272852,-0.094 0.218366,-0.0779 0.405654,-0.14427 0.725022,-0.25735 0.799407,-0.32321 1.347195,-0.48127 2.037085,-0.95808 0.351054,-0.24259 0.514514,-0.63228 0.78548,-0.93948 0.19113,-0.21667 0.40132,-0.41592 0.60203,-0.62373 0.80286,-0.54861 0.72811,-0.53713 1.45365,-0.91984 0.19128,-0.10089 0.3977,-0.1741 0.58033,-0.28991 0.17001,-0.10779 0.78033,-0.72448 0.85886,-0.79891 0.1312,-0.20305 0.24552,-0.37595 0.30129,-0.45424 0.64372,-0.90381 1.33409,-1.7109 2.13216,-2.48202 0.34436,-0.33273 0.72227,-0.62843 1.08366,-0.94258 0.93164,-0.69401 0.64341,-0.52392 1.55493,-1.05006 0.0245,-0.0141 0.0496,-0.0273 0.0744,-0.0408 0.17732,-0.18899 0.36384,-0.36881 0.54571,-0.55345 0.19232,-0.12361 0.27223,-0.17689 0.37723,-0.24598 -0.22539,-0.22257 -0.44906,-0.44634 -0.67386,-0.66663 -0.0673,-0.0659 0.13707,-0.12918 0.20257,-0.19688 0.0634,-0.0654 0.10656,-0.11126 0.15761,-0.16485 -0.0468,-0.12484 0.12641,-0.21708 0.29043,-0.31161 0.15826,-0.17504 0.30433,-0.34463 0.57722,-0.65422 0.13614,-0.1416 0.27339,-0.28294 0.40876,-0.4253 0.26748,-0.28137 0.47945,-0.55346 0.84905,-0.73484 0.0208,-0.0102 0.0423,-0.019 0.0636,-0.0284 0.63013,-0.62262 1.24082,-1.2647 1.77405,-1.97301 0.096,-0.19736 0.19218,-0.39465 0.29197,-0.58911 0.21723,-0.36981 0.37696,-0.66521 0.52503,-0.89142 0.0182,-0.0414 0.0365,-0.0825 0.0548,-0.12402 0.16813,-0.48159 0.35824,-0.95093 0.5886,-1.40663 0.0724,-0.14322 0.14218,-0.28847 0.22428,-0.42633 0.0104,-0.0175 0.022,-0.0343 0.0326,-0.0517 -0.20997,-0.73131 -0.1041,-1.6702 0.53226,-2.69441 0.20966,-0.33745 0.0993,-0.16849 0.33281,-0.50695 0.0578,-0.0806 0.12001,-0.15814 0.17311,-0.24184 0.22862,-0.36079 0.42256,-0.74278 0.6475,-1.10588 0.14108,-0.22774 0.29245,-0.44901 0.44442,-0.66972 -0.0795,-0.0962 -0.15623,-0.20055 -0.22944,-0.31575 -0.0991,-0.15595 -0.21734,-0.30151 -0.29713,-0.46818 -0.33595,-0.70185 -0.39425,-1.0622 -0.32506,-1.79834 0.0566,-0.34938 0.0485,-0.33936 0.18035,-0.80771 0.0188,-0.0669 0.0511,-0.1292 0.0755,-0.1943 0.0685,-0.18307 0.12979,-0.36867 0.20309,-0.54984 0.0598,-0.14783 0.164,-0.27627 0.19741,-0.43615 0.0985,-0.30818 0.17404,-0.56197 0.29403,-0.86351 0.43713,-1.09864 0.0567,-0.14385 0.32609,-0.70693 0.50859,-1.06295 -0.022,-0.0202 0.42632,-0.8878 0.057,-0.1163 0.11316,-0.23299 0.17105,-0.34882 0.0276,-0.0553 0.0639,-0.10653 0.0858,-0.16433 0.0864,-0.22747 0.19756,-0.76579 0.29457,-0.91364 0.5119,-0.78069 0.81525,-1.09068 1.14824,-1.09864 z m -10.66705,24.05176 c 0.0748,-0.0431 -0.15494,0.0768 -0.22944,0.12041 -0.006,0.003 -0.0153,0.0119 -0.0233,0.0176 0.0846,-0.0452 0.1696,-0.09 0.2527,-0.13798 z m -3.29592,11.77603 c -0.002,-0.003 -0.003,-0.004 -0.005,0.001 -0.03,0.0724 -0.053,0.14819 -0.0749,0.22427 0.0289,-0.0543 0.0567,-0.10878 0.0806,-0.16536 0.006,-0.0137 0.004,-0.0502 -5.3e-4,-0.0599 z m -19.838068,7.1484 c -0.03749,0.0222 -0.07548,0.0437 -0.113173,0.0656 -0.0013,0.0165 -0.01516,0.0604 -0.0031,0.0491 0.04492,-0.0419 0.07713,-0.0763 0.116271,-0.11472 z" /></clipPath><clipPath
       clipPathUnits="userSpaceOnUse"
       id="clipPath5120"><path
         id="path5122"
         style="fill:#ff0000;fill-opacity:1;fill-rule:nonzero;stroke:none;stroke-width:0.264583"
         d="m 32.236275,124.63839 v 72.83224 H 106.36353 V 124.63839 H 36.076869 c 0.241099,0.26194 0.463328,0.65371 0.62425,1.1715 0.03617,0.11636 0.07406,0.23253 0.110588,0.34882 0.01495,0.0476 0.03648,0.0935 0.04548,0.14262 0.06486,0.35503 0.05887,0.37388 0.07234,0.66043 0.0086,0.33108 -0.01341,0.43282 -0.160713,0.80977 -0.03563,0.0912 -0.211463,0.3511 -0.272336,0.4439 -1.169349,1.7823 -2.985545,0.57929 -1.795237,-1.18908 0.02323,-0.0345 0.04653,-0.0689 0.06976,-0.10335 5.29e-4,-0.003 7.93e-4,-0.006 0.0016,-0.009 7.94e-4,-0.003 0.0028,-0.002 0.0052,0 5.3e-4,-8e-4 0.0011,-0.002 0.0016,-0.003 0.0028,-0.004 0.0062,-0.0115 0.0098,-0.0181 -0.01101,-0.0339 -0.02466,-0.0673 -0.03514,-0.10128 -0.09896,-0.3205 -0.196491,-0.64326 -0.20619,-0.98185 -0.01498,-0.52382 0.06944,-0.91254 0.214455,-1.17151 z m 27.450005,12.8819 c 0.619498,-0.005 0.883452,0.54745 0.618048,1.27692 0.284298,0.45121 0.101092,0.54544 -0.257347,0.50902 -0.04572,0.0708 -0.09642,0.14191 -0.151413,0.21394 -0.02273,0.047 -0.04772,0.0943 -0.07493,0.14314 -0.02849,0.0511 -0.07639,0.087 -0.125058,0.12196 -0.04784,0.19658 -0.09162,0.39396 -0.125055,0.59324 0.03186,-0.002 0.06681,-0.005 0.108003,-0.007 0.03713,-0.002 -0.116147,0.0558 -0.110072,0.0191 5.29e-4,-0.004 0.0013,-0.008 0.0021,-0.0119 -0.403828,0.0297 -0.116707,0.0496 -0.577225,-0.0139 -0.438711,-0.15149 -0.641975,-0.16315 -0.954463,-0.63304 -0.282099,-0.42419 -0.189455,-0.87494 0.0181,-1.30224 0.107379,-0.22108 0.323432,-0.34605 0.514181,-0.47594 v -5.2e-4 c 0.440494,-0.29995 0.818491,-0.43012 1.115179,-0.43254 z m 0.0093,2.26498 c 0.0027,-0.0112 0.0055,-0.0224 0.0083,-0.0336 -0.02109,0.0236 -0.04248,0.0472 -0.0646,0.0708 -0.0064,0.007 -0.02611,0.0267 -0.01913,0.0207 0.02352,-0.0206 0.04946,-0.0392 0.07545,-0.0579 z m 0.0083,-0.0336 c 0.06943,-0.0775 0.13312,-0.15476 0.19172,-0.23151 0.03632,-0.075 0.06668,-0.14823 0.08785,-0.22118 -0.05036,-0.007 -0.10387,-0.0154 -0.159165,-0.0258 -0.03994,0.15954 -0.0812,0.31882 -0.120407,0.47853 z m 0.120407,-0.47853 c 0.04439,-0.17732 0.08684,-0.35493 0.122473,-0.53381 -0.0066,-0.0151 -0.01363,-0.0306 -0.02119,-0.046 -0.119126,-0.24194 -0.214765,-0.29736 -0.380336,-0.41082 -0.164388,-0.0542 0.02148,5.3e-4 -0.219626,-0.005 -0.0508,0.28172 -0.118512,0.56032 -0.190169,0.83767 0.234881,0.0556 0.477322,0.11825 0.688846,0.15813 z m 0.122473,-0.53381 c 0.08787,0.20167 0.08883,0.37997 0.03669,0.55965 0.0218,0.003 0.04288,0.005 0.06356,0.007 0.113334,-0.17557 0.198324,-0.34679 0.257347,-0.50902 -0.02529,-0.0401 -0.05393,-0.0827 -0.08682,-0.12867 -0.13725,-0.1917 -0.100518,-0.15856 -0.216006,-0.24546 -0.01511,0.10593 -0.03389,0.21137 -0.05478,0.31626 z m -0.09199,-0.42168 c 0.0037,0.002 0.01574,0.006 0.02379,0.01 -0.0013,-0.001 -0.0021,-0.002 -0.0036,-0.003 -0.01098,-0.004 -0.01675,-0.006 -0.02016,-0.007 z m -0.995286,1.90686 c 0.0048,0.0163 0.05957,0.0327 0.04496,0.0253 -0.01513,-0.008 -0.03002,-0.0168 -0.04496,-0.0253 z" /></clipPath><inkscape:path-effect
       effect="bspline"
       id="path-effect5361-0"
       is_visible="true"
       lpeversion="1"
       weight="33.333333"
       steps="2"
       helper_size="0"
       apply_no_weight="true"
       apply_with_weight="true"
       only_selected="false" /><inkscape:path-effect
       effect="bspline"
       id="path-effect5361-0-1"
       is_visible="true"
       lpeversion="1"
       weight="33.333333"
       steps="2"
       helper_size="0"
       apply_no_weight="true"
       apply_with_weight="true"
       only_selected="false" /><inkscape:path-effect
       effect="bspline"
       id="path-effect5361-0-1-8"
       is_visible="true"
       lpeversion="1"
       weight="33.333333"
       steps="2"
       helper_size="0"
       apply_no_weight="true"
       apply_with_weight="true"
       only_selected="false" /><inkscape:path-effect
       effect="bspline"
       id="path-effect5361-0-1-8-5"
       is_visible="true"
       lpeversion="1"
       weight="33.333333"
       steps="2"
       helper_size="0"
       apply_no_weight="true"
       apply_with_weight="true"
       only_selected="false" /><inkscape:path-effect
       effect="bspline"
       id="path-effect5361-0-1-7"
       is_visible="true"
       lpeversion="1"
       weight="33.333333"
       steps="2"
       helper_size="0"
       apply_no_weight="true"
       apply_with_weight="true"
       only_selected="false" /><inkscape:path-effect
       effect="bspline"
       id="path-effect5361-0-1-7-8"
       is_visible="true"
       lpeversion="1"
       weight="33.333333"
       steps="2"
       helper_size="0"
       apply_no_weight="true"
       apply_with_weight="true"
       only_selected="false" /><inkscape:path-effect
       effect="bspline"
       id="path-effect5361-0-1-7-2"
       is_visible="true"
       lpeversion="1"
       weight="33.333333"
       steps="2"
       helper_size="0"
       apply_no_weight="true"
       apply_with_weight="true"
       only_selected="false" /><inkscape:path-effect
       effect="bspline"
       id="path-effect5361-0-1-7-6"
       is_visible="true"
       lpeversion="1"
       weight="33.333333"
       steps="2"
       helper_size="0"
       apply_no_weight="true"
       apply_with_weight="true"
       only_selected="false" /><inkscape:path-effect
       effect="bspline"
       id="path-effect5361-0-1-7-0"
       is_visible="true"
       lpeversion="1"
       weight="33.333333"
       steps="2"
       helper_size="0"
       apply_no_weight="true"
       apply_with_weight="true"
       only_selected="false" /><inkscape:path-effect
       effect="bspline"
       id="path-effect5361-0-1-7-7"
       is_visible="true"
       lpeversion="1"
       weight="33.333333"
       steps="2"
       helper_size="0"
       apply_no_weight="true"
       apply_with_weight="true"
       only_selected="false" /><inkscape:path-effect
       effect="bspline"
       id="path-effect5361-0-1-7-9"
       is_visible="true"
       lpeversion="1"
       weight="33.333333"
       steps="2"
       helper_size="0"
       apply_no_weight="true"
       apply_with_weight="true"
       only_selected="false" /><inkscape:path-effect
       effect="bspline"
       id="path-effect5361-0-1-7-4"
       is_visible="true"
       lpeversion="1"
       weight="33.333333"
       steps="2"
       helper_size="0"
       apply_no_weight="true"
       apply_with_weight="true"
       only_selected="false" /><inkscape:path-effect
       effect="bspline"
       id="path-effect5361-0-1-7-42"
       is_visible="true"
       lpeversion="1"
       weight="33.333333"
       steps="2"
       helper_size="0"
       apply_no_weight="true"
       apply_with_weight="true"
       only_selected="false" /><inkscape:path-effect
       effect="bspline"
       id="path-effect5361-0-1-7-01"
       is_visible="true"
       lpeversion="1"
       weight="33.333333"
       steps="2"
       helper_size="0"
       apply_no_weight="true"
       apply_with_weight="true"
       only_selected="false" /><inkscape:path-effect
       effect="bspline"
       id="path-effect5361-0-1-7-422"
       is_visible="true"
       lpeversion="1"
       weight="33.333333"
       steps="2"
       helper_size="0"
       apply_no_weight="true"
       apply_with_weight="true"
       only_selected="false" /><inkscape:path-effect
       effect="bspline"
       id="path-effect5361-0-1-8-5-6"
       is_visible="true"
       lpeversion="1"
       weight="33.333333"
       steps="2"
       helper_size="0"
       apply_no_weight="true"
       apply_with_weight="true"
       only_selected="false" /><inkscape:path-effect
       effect="bspline"
       id="path-effect5361-0-1-8-5-0"
       is_visible="true"
       lpeversion="1"
       weight="33.333333"
       steps="2"
       helper_size="0"
       apply_no_weight="true"
       apply_with_weight="true"
       only_selected="false" /><inkscape:path-effect
       effect="bspline"
       id="path-effect5361-0-1-8-5-5"
       is_visible="true"
       lpeversion="1"
       weight="33.333333"
       steps="2"
       helper_size="0"
       apply_no_weight="true"
       apply_with_weight="true"
       only_selected="false" /><inkscape:path-effect
       effect="bspline"
       id="path-effect5361-0-1-8-5-1"
       is_visible="true"
       lpeversion="1"
       weight="33.333333"
       steps="2"
       helper_size="0"
       apply_no_weight="true"
       apply_with_weight="true"
       only_selected="false" /><inkscape:path-effect
       effect="bspline"
       id="path-effect5361-0-1-8-5-2"
       is_visible="true"
       lpeversion="1"
       weight="33.333333"
       steps="2"
       helper_size="0"
       apply_no_weight="true"
       apply_with_weight="true"
       only_selected="false" /><inkscape:path-effect
       effect="bspline"
       id="path-effect5361-0-1-8-5-04"
       is_visible="true"
       lpeversion="1"
       weight="33.333333"
       steps="2"
       helper_size="0"
       apply_no_weight="true"
       apply_with_weight="true"
       only_selected="false" /><inkscape:path-effect
       effect="bspline"
       id="path-effect5361-0-1-8-5-04-3"
       is_visible="true"
       lpeversion="1"
       weight="33.333333"
       steps="2"
       helper_size="0"
       apply_no_weight="true"
       apply_with_weight="true"
       only_selected="false" /><inkscape:path-effect
       effect="bspline"
       id="path-effect5361-0-1-8-5-04-1"
       is_visible="true"
       lpeversion="1"
       weight="33.333333"
       steps="2"
       helper_size="0"
       apply_no_weight="true"
       apply_with_weight="true"
       only_selected="false" /><inkscape:path-effect
       effect="bspline"
       id="path-effect5361-0-1-8-5-04-6"
       is_visible="true"
       lpeversion="1"
       weight="33.333333"
       steps="2"
       helper_size="0"
       apply_no_weight="true"
       apply_with_weight="true"
       only_selected="false" /><inkscape:path-effect
       effect="bspline"
       id="path-effect5361-0-1-8-5-04-7"
       is_visible="true"
       lpeversion="1"
       weight="33.333333"
       steps="2"
       helper_size="0"
       apply_no_weight="true"
       apply_with_weight="true"
       only_selected="false" /><inkscape:path-effect
       effect="bspline"
       id="path-effect5361-0-1-8-5-04-3-0"
       is_visible="true"
       lpeversion="1"
       weight="33.333333"
       steps="2"
       helper_size="0"
       apply_no_weight="true"
       apply_with_weight="true"
       only_selected="false" /><inkscape:path-effect
       effect="bspline"
       id="path-effect5361-0-1-8-5-04-3-3"
       is_visible="true"
       lpeversion="1"
       weight="33.333333"
       steps="2"
       helper_size="0"
       apply_no_weight="true"
       apply_with_weight="true"
       only_selected="false" /><inkscape:path-effect
       effect="bspline"
       id="path-effect5361-0-1-8-5-04-3-04"
       is_visible="true"
       lpeversion="1"
       weight="33.333333"
       steps="2"
       helper_size="0"
       apply_no_weight="true"
       apply_with_weight="true"
       only_selected="false" /><inkscape:path-effect
       effect="bspline"
       id="path-effect5361-0-1-8-5-04-3-4"
       is_visible="true"
       lpeversion="1"
       weight="33.333333"
       steps="2"
       helper_size="0"
       apply_no_weight="true"
       apply_with_weight="true"
       only_selected="false" /><inkscape:path-effect
       effect="bspline"
       id="path-effect5361-0-1-8-5-04-3-1"
       is_visible="true"
       lpeversion="1"
       weight="33.333333"
       steps="2"
       helper_size="0"
       apply_no_weight="true"
       apply_with_weight="true"
       only_selected="false" /><inkscape:path-effect
       effect="bspline"
       id="path-effect5361-0-1-8-5-04-3-9"
       is_visible="true"
       lpeversion="1"
       weight="33.333333"
       steps="2"
       helper_size="0"
       apply_no_weight="true"
       apply_with_weight="true"
       only_selected="false" /><inkscape:path-effect
       effect="bspline"
       id="path-effect5361-0-1-8-5-04-3-08"
       is_visible="true"
       lpeversion="1"
       weight="33.333333"
       steps="2"
       helper_size="0"
       apply_no_weight="true"
       apply_with_weight="true"
       only_selected="false" /><inkscape:path-effect
       effect="bspline"
       id="path-effect5361-0-1-8-5-04-3-08-2"
       is_visible="true"
       lpeversion="1"
       weight="33.333333"
       steps="2"
       helper_size="0"
       apply_no_weight="true"
       apply_with_weight="true"
       only_selected="false" /><clipPath
       clipPathUnits="userSpaceOnUse"
       id="clipPath5120-3"><path
         id="path5122-8"
         style="fill:#ff0000;fill-opacity:1;fill-rule:nonzero;stroke:none;stroke-width:0.264583"
         d="m 32.236275,124.63839 v 72.83224 H 106.36353 V 124.63839 H 36.076869 c 0.241099,0.26194 0.463328,0.65371 0.62425,1.1715 0.03617,0.11636 0.07406,0.23253 0.110588,0.34882 0.01495,0.0476 0.03648,0.0935 0.04548,0.14262 0.06486,0.35503 0.05887,0.37388 0.07234,0.66043 0.0086,0.33108 -0.01341,0.43282 -0.160713,0.80977 -0.03563,0.0912 -0.211463,0.3511 -0.272336,0.4439 -1.169349,1.7823 -2.985545,0.57929 -1.795237,-1.18908 0.02323,-0.0345 0.04653,-0.0689 0.06976,-0.10335 5.29e-4,-0.003 7.93e-4,-0.006 0.0016,-0.009 7.94e-4,-0.003 0.0028,-0.002 0.0052,0 5.3e-4,-8e-4 0.0011,-0.002 0.0016,-0.003 0.0028,-0.004 0.0062,-0.0115 0.0098,-0.0181 -0.01101,-0.0339 -0.02466,-0.0673 -0.03514,-0.10128 -0.09896,-0.3205 -0.196491,-0.64326 -0.20619,-0.98185 -0.01498,-0.52382 0.06944,-0.91254 0.214455,-1.17151 z m 27.450005,12.8819 c 0.619498,-0.005 0.883452,0.54745 0.618048,1.27692 0.284298,0.45121 0.101092,0.54544 -0.257347,0.50902 -0.04572,0.0708 -0.09642,0.14191 -0.151413,0.21394 -0.02273,0.047 -0.04772,0.0943 -0.07493,0.14314 -0.02849,0.0511 -0.07639,0.087 -0.125058,0.12196 -0.04784,0.19658 -0.09162,0.39396 -0.125055,0.59324 0.03186,-0.002 0.06681,-0.005 0.108003,-0.007 0.03713,-0.002 -0.116147,0.0558 -0.110072,0.0191 5.29e-4,-0.004 0.0013,-0.008 0.0021,-0.0119 -0.403828,0.0297 -0.116707,0.0496 -0.577225,-0.0139 -0.438711,-0.15149 -0.641975,-0.16315 -0.954463,-0.63304 -0.282099,-0.42419 -0.189455,-0.87494 0.0181,-1.30224 0.107379,-0.22108 0.323432,-0.34605 0.514181,-0.47594 v -5.2e-4 c 0.440494,-0.29995 0.818491,-0.43012 1.115179,-0.43254 z m 0.0093,2.26498 c 0.0027,-0.0112 0.0055,-0.0224 0.0083,-0.0336 -0.02109,0.0236 -0.04248,0.0472 -0.0646,0.0708 -0.0064,0.007 -0.02611,0.0267 -0.01913,0.0207 0.02352,-0.0206 0.04946,-0.0392 0.07545,-0.0579 z m 0.0083,-0.0336 c 0.06943,-0.0775 0.13312,-0.15476 0.19172,-0.23151 0.03632,-0.075 0.06668,-0.14823 0.08785,-0.22118 -0.05036,-0.007 -0.10387,-0.0154 -0.159165,-0.0258 -0.03994,0.15954 -0.0812,0.31882 -0.120407,0.47853 z m 0.120407,-0.47853 c 0.04439,-0.17732 0.08684,-0.35493 0.122473,-0.53381 -0.0066,-0.0151 -0.01363,-0.0306 -0.02119,-0.046 -0.119126,-0.24194 -0.214765,-0.29736 -0.380336,-0.41082 -0.164388,-0.0542 0.02148,5.3e-4 -0.219626,-0.005 -0.0508,0.28172 -0.118512,0.56032 -0.190169,0.83767 0.234881,0.0556 0.477322,0.11825 0.688846,0.15813 z m 0.122473,-0.53381 c 0.08787,0.20167 0.08883,0.37997 0.03669,0.55965 0.0218,0.003 0.04288,0.005 0.06356,0.007 0.113334,-0.17557 0.198324,-0.34679 0.257347,-0.50902 -0.02529,-0.0401 -0.05393,-0.0827 -0.08682,-0.12867 -0.13725,-0.1917 -0.100518,-0.15856 -0.216006,-0.24546 -0.01511,0.10593 -0.03389,0.21137 -0.05478,0.31626 z m -0.09199,-0.42168 c 0.0037,0.002 0.01574,0.006 0.02379,0.01 -0.0013,-0.001 -0.0021,-0.002 -0.0036,-0.003 -0.01098,-0.004 -0.01675,-0.006 -0.02016,-0.007 z m -0.995286,1.90686 c 0.0048,0.0163 0.05957,0.0327 0.04496,0.0253 -0.01513,-0.008 -0.03002,-0.0168 -0.04496,-0.0253 z" /></clipPath><inkscape:path-effect
       effect="bspline"
       id="path-effect4765-0"
       is_visible="true"
       lpeversion="1"
       weight="33.333333"
       steps="2"
       helper_size="0"
       apply_no_weight="true"
       apply_with_weight="true"
       only_selected="false" /><inkscape:path-effect
       effect="bspline"
       id="path-effect4962-2"
       is_visible="true"
       lpeversion="1"
       weight="33.333333"
       steps="2"
       helper_size="0"
       apply_no_weight="true"
       apply_with_weight="true"
       only_selected="false" /></defs><g
     inkscape:label="Warstwa 1"
     inkscape:groupmode="layer"
     id="layer1"><g
       id="g2905"
       style="fill:#edc85d;fill-opacity:1"
       transform="matrix(0.90073994,0,0,0.90073994,-25.96743,-14.214393)"><path
         id="path287"
         style="fill:#edc85d;fill-opacity:1;fill-rule:evenodd;stroke-width:0.444939"
         d="M 62.551337,26.093656 A 23.001314,22.637411 0 0 0 39.549931,48.731219 23.001314,22.637411 0 0 0 62.551337,71.368508 23.001314,22.637411 0 0 0 85.552466,48.731219 23.001314,22.637411 0 0 0 62.551337,26.093656 Z M 62.5346,27.425278 A 21.210685,21.210685 0 0 1 83.745325,48.636005 21.210685,21.210685 0 0 1 62.534599,69.846731 21.210685,21.210685 0 0 1 41.323872,48.636005 21.210685,21.210685 0 0 1 62.534599,27.425278 Z" /><ellipse
         style="fill:#edc85d;fill-opacity:1;fill-rule:evenodd;stroke-width:0.162102"
         id="path443"
         cx="62.724895"
         cy="48.661625"
         rx="2.8534555"
         ry="3.0180781" /><path
         id="path499"
         style="fill:#edc85d;fill-opacity:1;fill-rule:evenodd;stroke-width:0.16683"
         d="m 62.582343,40.551238 a 8.1323482,8.1323482 0 0 0 -8.132411,8.132412 8.1323482,8.1323482 0 0 0 8.132411,8.132137 8.1323482,8.1323482 0 0 0 8.132137,-8.132137 8.1323482,8.1323482 0 0 0 -8.132137,-8.132412 z m 0,1.902356 a 6.3251599,6.3251599 0 0 1 6.324995,6.324996 6.3251599,6.3251599 0 0 1 -6.324995,6.325269 6.3251599,6.3251599 0 0 1 -6.32527,-6.325269 6.3251599,6.3251599 0 0 1 6.32527,-6.324996 z" /><path
         id="path2191"
         clip-path="url(#clipPath4784)"
         style="opacity:1;fill:#edc85d;fill-opacity:1;fill-rule:evenodd;stroke:none;stroke-width:2.08813;stroke-dasharray:none;stroke-opacity:1"
         d="m 74.463191,113.21103 a 50.212315,49.385284 0 0 0 -0.503845,0.006 1.9234379,2.7514388 86.426198 0 0 -0.553455,1.49914 1.9234379,2.7514388 86.426198 0 0 1.539958,1.37149 46.305492,46.305492 0 0 1 42.068231,28.97446 c 0.068,0.14293 0.14165,0.28615 0.22169,0.43046 l -0.0315,-0.1049 a 2.0345578,2.0345579 21.248912 0 0 1.66295,0.863 2.0345578,2.0345579 21.248912 0 0 2.0345,-2.03451 2.0345578,2.0345579 21.248912 0 0 -0.14676,-0.74672 50.212315,49.385284 0 0 0 -46.291749,-30.2581 z m -10.828797,1.16582 a 50.212315,49.385284 0 0 0 -38.324792,38.14444 l 2.969328,0.11008 -0.09974,3.58582 A 46.305492,46.305492 0 0 1 64.054007,117.1741 Z m 57.528786,34.58911 a 2.1849725,2.0345578 1.8432145e-6 0 0 -2.18488,2.0345 2.1849725,2.0345578 1.8432145e-6 0 0 0.0202,0.1726 46.305492,46.305492 0 0 1 0.14572,0.60099 2.1849725,2.0345578 1.8432145e-6 0 0 0.0212,0.047 l -0.009,0.005 a 46.305492,46.305492 0 0 1 1.20044,9.30072 2.7592972,2.438894 88.90716 0 0 2.23449,1.5937 2.7592972,2.438894 88.90716 0 0 2.06396,-1.43454 50.212315,49.385284 0 0 0 -1.69447,-11.47837 l -0.0202,0.0109 a 2.1849725,2.0345578 1.8432145e-6 0 0 -1.77767,-0.85215 z m -95.141994,12.392 a 2.5167154,2.0489182 88.743409 0 0 -1.767334,1.49655 50.212315,49.385284 0 0 0 1.380795,11.24325 2.554661,1.7220596 86.645078 0 0 1.413867,0.85317 2.554661,1.7220596 86.645078 0 0 0.260966,-0.0532 1.6905533,2.2503393 0 0 0 1.646928,-2.09393 46.305492,46.305492 0 0 1 -0.318844,-1.48983 1.6905533,2.2503393 0 0 0 -0.10697,-0.18449 l 0.05891,-0.0543 a 46.305492,46.305492 0 0 1 -0.823205,-8.61239 2.5167154,2.0489182 88.743409 0 0 -1.745114,-1.10485 z m 93.865074,7.7401 a 46.305492,46.305492 0 0 1 -37.085594,38.75836 l 2.424659,-0.18087 0.332796,3.0856 a 50.212315,49.385284 0 0 0 38.106199,-38.31807 l -3.92844,-0.20413 z m -90.572768,9.08523 a 2.5547314,1.8493203 86.865475 0 0 -0.08785,0.004 2.5547314,1.8493203 86.865475 0 0 -1.637109,2.10633 50.212315,49.385284 0 0 0 45.836995,31.6761 2.6441335,2.4541359 4.4617862e-6 0 0 0.705383,-1.62677 A 2.6441335,2.4541359 4.4617862e-6 0 0 73.407958,208.68 46.305492,46.305492 0 0 1 31.133019,179.70864 c -4.29e-4,-8.8e-4 -0.0011,-0.002 -0.0016,-0.003 -0.09557,-0.1969 -0.201911,-0.39795 -0.324528,-0.5855 l -0.0067,0.006 a 2.5547314,1.8493203 86.865475 0 0 -0.275435,-0.36742 c -0.0078,-0.008 -0.01538,-0.0171 -0.02326,-0.0253 a 2.5547314,1.8493203 86.865475 0 0 -1.100191,-0.54983 2.5547314,1.8493203 86.865475 0 0 -0.08785,-0.001 z"
         transform="matrix(0.53097971,0,0,0.53097971,23.236822,-37.303944)" /><path
         id="path4788"
         clip-path="url(#clipPath5120)"
         style="fill:#edc85d;fill-opacity:1;fill-rule:evenodd;stroke:none;stroke-width:2.02272;stroke-dasharray:none;stroke-opacity:1"
         transform="matrix(0.53097971,0,0,0.53097971,26.16017,-36.595086)"
         d="m 68.789104,124.6613 c -0.0018,7.3e-4 0.0018,0.003 0.0036,0.005 0.03125,3.9e-4 0.06225,5.1e-4 0.09354,0 0.04682,-6.7e-4 0.0937,-0.001 0.140559,-0.004 -0.04287,-1.5e-4 -0.08573,0.001 -0.128674,0.002 -0.02974,-10e-4 -0.03323,-0.002 -0.03876,-0.002 -0.0033,4.5e-4 -0.0154,0.001 -0.04496,0.001 -0.0086,0 -0.01682,-0.003 -0.02532,-0.002 z m 2.140954,0.014 v 5.2e-4 h 0.01964 a 37.06361,36.41621 0 0 0 -0.01964,-5.2e-4 z m -4.905126,0.10904 a 37.06361,36.41621 0 0 0 -33.788636,36.27117 37.06361,36.41621 0 0 0 0.93586,8.11785 2.7489528,1.7260725 85.69282 0 0 1.794206,1.10794 2.7489528,1.7260725 85.69282 0 0 1.275891,-2.42569 l 0.0078,0.0625 c -3.93e-4,-0.32849 -0.0012,-0.69357 -0.0021,-1.07952 -0.112088,-3.03258 -0.04758,-7.64957 0.503328,-11.46855 0.577967,-4.00599 1.690331,-7.1214 2.476852,-8.62273 a 1.8137063,1.6355835 89.999997 0 1 1.55701,-1.26297 1.8137063,1.6355835 89.999997 0 1 1.63556,1.81332 1.8137063,1.6355835 89.999997 0 1 -0.0052,0.1447 1.5354583,2.2439187 26.127799 0 1 -0.10387,0.84594 c -0.133869,0.59319 -0.933136,2.33805 -1.823661,4.86947 -0.4856,2.16272 -0.993232,4.90796 -1.089856,7.59334 -0.04694,1.30456 0.0035,2.59339 0.111104,3.83904 0.141772,0.68174 0.348181,1.82227 0.649056,3.20394 0.275597,1.1696 0.605467,2.47047 1.024744,3.86953 0.379614,1.26672 0.826982,2.59933 1.277441,3.88658 a 4.376342,1.8153575 79.606386 0 0 0.415996,0.67025 1.8475006,2.1281335 0 0 0 0.261482,0.31057 4.376342,1.8153575 79.606386 0 0 1.022677,0.49248 1.8475006,2.1281335 0 0 0 0.167432,0.01 1.8475006,2.1281335 0 0 0 1.847432,-2.12287 c -0.0072,-0.0383 -0.01488,-0.0761 -0.02222,-0.11421 -0.316348,-0.73908 -0.61464,-1.48209 -0.874882,-2.20968 -0.03842,-0.10741 -0.07163,-0.21216 -0.10852,-0.31884 a 1.6040365,2.6127603 0 0 0 -0.0067,-0.009 c -0.239609,-0.67105 -0.452829,-1.37529 -0.644922,-2.08979 a 4.376342,1.8153575 79.606386 0 0 -0.05684,-0.12454 c -0.451511,-1.73223 -0.860542,-3.62057 -1.101225,-5.39347 -0.706315,-5.20283 0.02655,-9.34372 0.459404,-9.51053 0.19081,-0.301 0.423366,-0.4768 0.664558,-0.52194 0.516649,-0.31891 1.2229,0.0175 1.636076,0.62684 0.273955,0.40397 0.417941,0.92779 0.436149,1.73529 0.0049,0.0263 0.0105,0.0512 0.01499,0.0786 0.138775,0.8296 0.09458,1.91187 -0.02946,3.17087 v 0.003 c -0.0019,1.09305 -0.01443,2.47754 5.17e-4,4.03851 0.041,0.37304 0.09426,0.75641 0.15813,1.14722 0.01651,0.0741 0.03232,0.14889 0.04909,0.22221 a 2.7558198,1.8178026 83.605983 0 0 1.766301,0.98753 2.7558198,1.8178026 83.605983 0 0 1.117244,-1.10587 c 0.02485,-0.11521 0.04722,-0.23287 0.06511,-0.35502 0.03209,-0.21914 0.04907,-0.4494 0.05943,-0.68213 a 19.474756,20.013084 0 0 1 -0.168465,-2.60656 19.474756,20.013084 0 0 1 19.474781,-20.01325 19.474756,20.013084 0 0 1 2.288749,0.13953 c 0.479363,0.0539 1.17031,0.12281 1.741495,-0.0305 a 2.7590841,1.7910995 5.6952808 0 0 1.169955,-1.32188 2.7590841,1.7910995 5.6952808 0 0 -1.548743,-1.77819 c -0.154557,-0.0278 -0.313757,-0.0548 -0.475423,-0.0816 -0.47828,-0.0223 -0.960065,-0.0348 -1.446423,-0.0264 -4.289937,0.0748 -8.823928,1.40045 -10.674284,1.88257 a 1.9949877,3.598682 61.180902 0 1 -3.084566,-0.22944 1.9949877,3.598682 61.180902 0 1 1.700154,-3.46077 1.9949877,3.598682 61.180902 0 1 1.459859,-0.67593 c 0.09958,-0.0486 0.208977,-0.1077 0.327112,-0.17777 a 1.8101297,2.7041688 82.336473 0 0 0.734839,-1.97197 1.8101297,2.7041688 82.336473 0 0 -2.289783,-1.06143 c -0.338717,0.0703 -0.672708,0.148 -0.995288,0.24081 -0.215698,0.0621 -0.425446,0.13102 -0.632519,0.20309 -3.758305,2.23499 -6.687668,4.93616 -8.486304,5.90506 -0.431117,0.23225 -0.796998,0.36437 -1.097091,0.4129 -1.388818,0.30354 -1.711224,-0.95859 -1.425752,-2.16008 0.05609,-0.23608 0.139255,-0.46901 0.254248,-0.70021 -0.04546,-0.59627 3.229861,-3.50796 8.347294,-5.46324 4.008699,-1.53146 9.14528,-2.47586 11.859741,-2.77657 0.277583,-0.089 0.586648,-0.23235 0.876432,-0.49713 a 2.1869727,2.7580203 87.298242 0 0 0.587045,-1.53324 2.1869727,2.7580203 87.298242 0 0 -2.00608,-1.89601 c -0.0744,-0.007 -0.151397,-0.0187 -0.223758,-0.0233 z m -2.540414,10.67738 v 5.2e-4 c 0.0084,0.0221 0.01673,0.0447 0.02532,0.0661 0.0026,-0.0154 0.0056,-0.0306 0.0083,-0.046 -0.01128,-0.007 -0.02239,-0.0139 -0.03359,-0.0207 z m 12.209074,3.74448 c -0.01499,0.001 -0.02997,0.002 -0.04496,0.004 l 0.06511,0.009 c -0.0062,-0.004 -0.01238,-0.008 -0.0186,-0.0124 -5.15e-4,4e-5 -2e-4,-3e-5 -0.0016,0 z m 12.020972,1.36374 c -3.08e-4,3.2e-4 -10e-4,2.4e-4 -10e-4,5.2e-4 3.43e-4,-2e-5 10e-4,3e-5 10e-4,0 z m 0,5.2e-4 c 3.41e-4,-2e-5 0.001,3e-5 0.001,0 v -5.2e-4 c -3.21e-4,2.9e-4 -0.001,2.7e-4 -0.001,5.2e-4 z m -0.0041,0 c -6.83e-4,1.6e-4 -0.0013,4.5e-4 -0.0021,5.1e-4 9.6e-5,0.001 4.2e-4,0.002 5.16e-4,0.003 1.74e-4,-8e-5 0.0011,-0.001 0.0016,-0.003 z m -4.119129,6.50658 c -0.03921,0.004 -0.0819,0.0113 -0.118339,0.0134 0.02315,0.0351 0.04614,0.0703 0.06925,0.10542 0.01581,-0.0398 0.03266,-0.0792 0.04909,-0.11885 z m 0.395325,0.78703 v 5.2e-4 c 0.0028,0.004 0.0095,0.0131 0.0124,0.017 9.71e-4,-9.3e-4 0.0021,-0.002 0.0031,-0.003 -0.0054,-0.005 -0.0099,-0.0102 -0.0155,-0.0145 z m -46.734098,26.10331 c -0.05172,0.0781 -0.02776,0.0988 0.04237,0.0853 -0.0019,-0.011 -0.0044,-0.022 -0.0062,-0.0331 v -5.2e-4 c -0.01102,-0.0158 -0.0276,-0.0392 -0.03617,-0.0517 z" /><path
         id="path4788-8"
         clip-path="url(#clipPath5120-3)"
         style="fill:#edc85d;fill-opacity:1;fill-rule:evenodd;stroke:none;stroke-width:2.02272;stroke-dasharray:none;stroke-opacity:1"
         transform="matrix(-0.53097971,0,0,-0.53097971,99.183549,134.02275)"
         d="m 68.789104,124.6613 c -0.0018,7.3e-4 0.0018,0.003 0.0036,0.005 0.03125,3.9e-4 0.06225,5.1e-4 0.09354,0 0.04682,-6.7e-4 0.0937,-0.001 0.140559,-0.004 -0.04287,-1.5e-4 -0.08573,0.001 -0.128674,0.002 -0.02974,-10e-4 -0.03323,-0.002 -0.03876,-0.002 -0.0033,4.5e-4 -0.0154,0.001 -0.04496,0.001 -0.0086,0 -0.01682,-0.003 -0.02532,-0.002 z m 2.140954,0.014 v 5.2e-4 h 0.01964 a 37.06361,36.41621 0 0 0 -0.01964,-5.2e-4 z m -4.905126,0.10904 a 37.06361,36.41621 0 0 0 -33.788636,36.27117 37.06361,36.41621 0 0 0 0.93586,8.11785 2.7489528,1.7260725 85.69282 0 0 1.794206,1.10794 2.7489528,1.7260725 85.69282 0 0 1.275891,-2.42569 l 0.0078,0.0625 c -3.93e-4,-0.32849 -0.0012,-0.69357 -0.0021,-1.07952 -0.112088,-3.03258 -0.04758,-7.64957 0.503328,-11.46855 0.577967,-4.00599 1.690331,-7.1214 2.476852,-8.62273 a 1.8137063,1.6355835 89.999997 0 1 1.55701,-1.26297 1.8137063,1.6355835 89.999997 0 1 1.63556,1.81332 1.8137063,1.6355835 89.999997 0 1 -0.0052,0.1447 1.5354583,2.2439187 26.127799 0 1 -0.10387,0.84594 c -0.133869,0.59319 -0.933136,2.33805 -1.823661,4.86947 -0.4856,2.16272 -0.993232,4.90796 -1.089856,7.59334 -0.04694,1.30456 0.0035,2.59339 0.111104,3.83904 0.141772,0.68174 0.348181,1.82227 0.649056,3.20394 0.275597,1.1696 0.605467,2.47047 1.024744,3.86953 0.379614,1.26672 0.826982,2.59933 1.277441,3.88658 a 4.376342,1.8153575 79.606386 0 0 0.415996,0.67025 1.8475006,2.1281335 0 0 0 0.261482,0.31057 4.376342,1.8153575 79.606386 0 0 1.022677,0.49248 1.8475006,2.1281335 0 0 0 0.167432,0.01 1.8475006,2.1281335 0 0 0 1.847432,-2.12287 c -0.0072,-0.0383 -0.01488,-0.0761 -0.02222,-0.11421 -0.316348,-0.73908 -0.61464,-1.48209 -0.874882,-2.20968 -0.03842,-0.10741 -0.07163,-0.21216 -0.10852,-0.31884 a 1.6040365,2.6127603 0 0 0 -0.0067,-0.009 c -0.239609,-0.67105 -0.452829,-1.37529 -0.644922,-2.08979 a 4.376342,1.8153575 79.606386 0 0 -0.05684,-0.12454 c -0.451511,-1.73223 -0.860542,-3.62057 -1.101225,-5.39347 -0.706315,-5.20283 0.02655,-9.34372 0.459404,-9.51053 0.19081,-0.301 0.423366,-0.4768 0.664558,-0.52194 0.516649,-0.31891 1.2229,0.0175 1.636076,0.62684 0.273955,0.40397 0.417941,0.92779 0.436149,1.73529 0.0049,0.0263 0.0105,0.0512 0.01499,0.0786 0.138775,0.8296 0.09458,1.91187 -0.02946,3.17087 v 0.003 c -0.0019,1.09305 -0.01443,2.47754 5.17e-4,4.03851 0.041,0.37304 0.09426,0.75641 0.15813,1.14722 0.01651,0.0741 0.03232,0.14889 0.04909,0.22221 a 2.7558198,1.8178026 83.605983 0 0 1.766301,0.98753 2.7558198,1.8178026 83.605983 0 0 1.117244,-1.10587 c 0.02485,-0.11521 0.04722,-0.23287 0.06511,-0.35502 0.03209,-0.21914 0.04907,-0.4494 0.05943,-0.68213 a 19.474756,20.013084 0 0 1 -0.168465,-2.60656 19.474756,20.013084 0 0 1 19.474781,-20.01325 19.474756,20.013084 0 0 1 2.288749,0.13953 c 0.479363,0.0539 1.17031,0.12281 1.741495,-0.0305 a 2.7590841,1.7910995 5.6952808 0 0 1.169955,-1.32188 2.7590841,1.7910995 5.6952808 0 0 -1.548743,-1.77819 c -0.154557,-0.0278 -0.313757,-0.0548 -0.475423,-0.0816 -0.47828,-0.0223 -0.960065,-0.0348 -1.446423,-0.0264 -4.289937,0.0748 -8.823928,1.40045 -10.674284,1.88257 a 1.9949877,3.598682 61.180902 0 1 -3.084566,-0.22944 1.9949877,3.598682 61.180902 0 1 1.700154,-3.46077 1.9949877,3.598682 61.180902 0 1 1.459859,-0.67593 c 0.09958,-0.0486 0.208977,-0.1077 0.327112,-0.17777 a 1.8101297,2.7041688 82.336473 0 0 0.734839,-1.97197 1.8101297,2.7041688 82.336473 0 0 -2.289783,-1.06143 c -0.338717,0.0703 -0.672708,0.148 -0.995288,0.24081 -0.215698,0.0621 -0.425446,0.13102 -0.632519,0.20309 -3.758305,2.23499 -6.687668,4.93616 -8.486304,5.90506 -0.431117,0.23225 -0.796998,0.36437 -1.097091,0.4129 -1.388818,0.30354 -1.711224,-0.95859 -1.425752,-2.16008 0.05609,-0.23608 0.139255,-0.46901 0.254248,-0.70021 -0.04546,-0.59627 3.229861,-3.50796 8.347294,-5.46324 4.008699,-1.53146 9.14528,-2.47586 11.859741,-2.77657 0.277583,-0.089 0.586648,-0.23235 0.876432,-0.49713 a 2.1869727,2.7580203 87.298242 0 0 0.587045,-1.53324 2.1869727,2.7580203 87.298242 0 0 -2.00608,-1.89601 c -0.0744,-0.007 -0.151397,-0.0187 -0.223758,-0.0233 z m -2.540414,10.67738 v 5.2e-4 c 0.0084,0.0221 0.01673,0.0447 0.02532,0.0661 0.0026,-0.0154 0.0056,-0.0306 0.0083,-0.046 -0.01128,-0.007 -0.02239,-0.0139 -0.03359,-0.0207 z m 12.209074,3.74448 c -0.01499,0.001 -0.02997,0.002 -0.04496,0.004 l 0.06511,0.009 c -0.0062,-0.004 -0.01238,-0.008 -0.0186,-0.0124 -5.15e-4,4e-5 -2e-4,-3e-5 -0.0016,0 z m 12.020972,1.36374 c -3.08e-4,3.2e-4 -10e-4,2.4e-4 -10e-4,5.2e-4 3.43e-4,-2e-5 10e-4,3e-5 10e-4,0 z m 0,5.2e-4 c 3.41e-4,-2e-5 0.001,3e-5 0.001,0 v -5.2e-4 c -3.21e-4,2.9e-4 -0.001,2.7e-4 -0.001,5.2e-4 z m -0.0041,0 c -6.83e-4,1.6e-4 -0.0013,4.5e-4 -0.0021,5.1e-4 9.6e-5,0.001 4.2e-4,0.002 5.16e-4,0.003 1.74e-4,-8e-5 0.0011,-0.001 0.0016,-0.003 z m -4.119129,6.50658 c -0.03921,0.004 -0.0819,0.0113 -0.118339,0.0134 0.02315,0.0351 0.04614,0.0703 0.06925,0.10542 0.01581,-0.0398 0.03266,-0.0792 0.04909,-0.11885 z m 0.395325,0.78703 v 5.2e-4 c 0.0028,0.004 0.0095,0.0131 0.0124,0.017 9.71e-4,-9.3e-4 0.0021,-0.002 0.0031,-0.003 -0.0054,-0.005 -0.0099,-0.0102 -0.0155,-0.0145 z m -46.734098,26.10331 c -0.05172,0.0781 -0.02776,0.0988 0.04237,0.0853 -0.0019,-0.011 -0.0044,-0.022 -0.0062,-0.0331 v -5.2e-4 c -0.01102,-0.0158 -0.0276,-0.0392 -0.03617,-0.0517 z" /></g><text
       xml:space="preserve"
       style="font-style:normal;font-variant:normal;font-weight:normal;font-stretch:normal;font-size:62.1722px;line-height:1.25;font-family:Cambria;-inkscape-font-specification:Cambria;fill:#000000;fill-opacity:1;stroke:none;stroke-width:0.323813"
       x="91.518181"
       y="75.758339"
       id="text5060"
       transform="scale(0.99005572,1.0100442)"><tspan
         sodipodi:role="line"
         id="tspan5058"
         style="font-style:normal;font-variant:normal;font-weight:normal;font-stretch:normal;font-size:62.1722px;font-family:Cambria;-inkscape-font-specification:Cambria;stroke-width:0.323813"
         x="91.518181"
         y="75.758339" /></text><text
       xml:space="preserve"
       transform="scale(0.26458333)"
       id="text5112"
       style="font-style:normal;font-weight:normal;font-size:40px;line-height:1.25;font-family:sans-serif;white-space:pre;shape-inside:url(#rect5114);display:inline;fill:#000000;fill-opacity:1;stroke:none" /><g
       aria-label="HIT"
       id="text451"
       style="font-size:50.8px;line-height:1.25;font-family:'DIN Condensed';-inkscape-font-specification:'DIN Condensed, ';fill:none;stroke:#edc85d;stroke-width:1.265;stroke-dasharray:none;stroke-opacity:1"
       transform="translate(-34.050135,-19.831398)"><path
         d="m 107.88441,32.140467 h 5.1816 v 15.494 h 6.4008 v -15.494 h 5.1816 v 36.169599 h -5.1816 v -16.1036 h -6.4008 v 16.1036 h -5.1816 z"
         id="path5268"
         style="stroke:#edc85d;stroke-width:1.265;stroke-dasharray:none;stroke-opacity:1" /><path
         d="m 129.67764,32.140467 h 5.1816 v 36.169599 h -5.1816 z"
         id="path5270"
         style="stroke:#edc85d;stroke-width:1.265;stroke-dasharray:none;stroke-opacity:1" /><path
         d="m 143.29206,37.017267 h -5.9944 v -4.8768 h 17.1704 v 4.8768 h -5.9944 v 31.292799 h -5.1816 z"
         id="path5272"
         style="stroke:#edc85d;stroke-width:1.265;stroke-dasharray:none;stroke-opacity:1" /></g><g
       aria-label="-"
       transform="matrix(0.97321464,0,0,1.0275226,-34.050135,-19.831398)"
       id="text2813"
       style="font-size:39.6773px;line-height:1.25;font-family:'DIN Condensed';-inkscape-font-specification:'DIN Condensed, ';fill:none;stroke:#edc85d;stroke-width:1.265;stroke-dasharray:none;stroke-opacity:1"><path
         d="M 94.869298,46.519125 H 106.81217 V 50.56621 H 94.869298 Z"
         id="path5275"
         style="stroke:#edc85d;stroke-width:1.265;stroke-dasharray:none;stroke-opacity:1" /></g><g
       aria-label="MUZYKA NA OKRAGŁO"
       id="text2972"
       style="font-size:10.5833px;line-height:-115.68;font-family:'DIN Condensed';-inkscape-font-specification:'DIN Condensed, ';fill:#edc85d;fill-opacity:1;stroke-width:0.264583"
       transform="translate(-34.050135,-19.831398)"><path
         d="m 70.700068,74.70195 h 1.037164 l 1.386412,3.989904 h 0.02117 L 74.52064,74.70195 h 1.047746 v 7.535309 H 74.48889 V 77.65469 h -0.02117 l -1.068913,3.23849 h -0.539748 l -1.05833,-3.23849 h -0.02117 v 4.582569 h -1.079497 z"
         style="fill:#edc85d;fill-opacity:1"
         id="path5237" /><path
         d="m 80.076869,80.543931 q 0,0.370415 -0.137582,0.687914 -0.137583,0.317499 -0.380999,0.560915 -0.232833,0.232833 -0.550332,0.370416 -0.317499,0.137583 -0.677331,0.137583 -0.359832,0 -0.677331,-0.137583 -0.317499,-0.137583 -0.560915,-0.370416 -0.232833,-0.243416 -0.370416,-0.560915 -0.137582,-0.317499 -0.137582,-0.687914 V 74.70195 h 1.079496 v 5.736148 q 0,0.402165 0.190499,0.592665 0.1905,0.190499 0.476249,0.190499 0.285749,0 0.476248,-0.190499 0.1905,-0.1905 0.1905,-0.592665 V 74.70195 h 1.079496 z"
         style="fill:#edc85d;fill-opacity:1"
         id="path5239" /><path
         d="m 80.743624,81.284762 2.031993,-5.566816 h -1.92616 V 74.70195 h 3.100906 v 0.857247 l -2.074326,5.662065 h 2.074326 v 1.015997 h -3.206739 z"
         style="fill:#edc85d;fill-opacity:1"
         id="path5241" /><path
         d="M 85.622526,79.051686 84.140865,74.70195 h 1.142996 l 0.86783,2.995073 h 0.02117 l 0.867831,-2.995073 h 1.142996 l -1.481662,4.349736 v 3.185573 h -1.079497 z"
         style="fill:#edc85d;fill-opacity:1"
         id="path5243" /><path
         d="m 88.723439,74.70195 h 1.079497 v 3.439572 h 0.02117 l 1.576912,-3.439572 h 1.079497 l -1.471079,3.01624 1.746244,4.519069 h -1.143 l -1.227663,-3.344323 -0.582081,1.09008 v 2.254243 h -1.079497 z"
         style="fill:#edc85d;fill-opacity:1"
         id="path5245" /><path
         d="m 94.882925,76.871526 h -0.02117 l -0.529165,2.730491 h 1.0795 z M 94.427844,74.70195 h 0.89958 l 1.682745,7.535309 h -1.079497 l -0.317499,-1.619245 h -1.471079 l -0.317499,1.619245 h -1.079496 z"
         style="fill:#edc85d;fill-opacity:1"
         id="path5247" /><path
         d="m 99.465499,74.70195 h 1.037161 l 1.62983,4.540235 h 0.0212 V 74.70195 h 1.07949 v 7.535309 h -1.01599 l -1.651,-4.529652 h -0.0212 v 4.529652 h -1.079501 z"
         style="fill:#edc85d;fill-opacity:1"
         id="path5249" /><path
         d="m 105.85782,76.871526 h -0.0212 l -0.52917,2.730491 h 1.0795 z m -0.45509,-2.169576 h 0.89958 l 1.68275,7.535309 h -1.0795 l -0.3175,-1.619245 h -1.47108 l -0.31749,1.619245 h -1.0795 z"
         style="fill:#edc85d;fill-opacity:1"
         id="path5251" /><path
         d="m 110.41922,76.479944 q 0,-0.455082 0.15875,-0.804331 0.15875,-0.349249 0.41275,-0.571498 0.26458,-0.232833 0.58208,-0.349249 0.32808,-0.116416 0.65617,-0.116416 0.32808,0 0.64558,0.116416 0.32808,0.116416 0.58208,0.349249 0.26458,0.222249 0.42333,0.571498 0.15875,0.349249 0.15875,0.804331 v 3.979321 q 0,0.465665 -0.15875,0.814914 -0.15875,0.338665 -0.42333,0.571498 -0.254,0.222249 -0.58208,0.338665 -0.3175,0.116417 -0.64558,0.116417 -0.32809,0 -0.65617,-0.116417 -0.3175,-0.116416 -0.58208,-0.338665 -0.254,-0.232833 -0.41275,-0.571498 -0.15875,-0.349249 -0.15875,-0.814914 z m 1.0795,3.979321 q 0,0.391582 0.21166,0.582081 0.22225,0.179916 0.51859,0.179916 0.29633,0 0.508,-0.179916 0.22224,-0.190499 0.22224,-0.582081 v -3.979321 q 0,-0.391582 -0.22224,-0.571498 -0.21167,-0.1905 -0.508,-0.1905 -0.29634,0 -0.51859,0.1905 -0.21166,0.179916 -0.21166,0.571498 z"
         style="fill:#edc85d;fill-opacity:1"
         id="path5253" /><path
         d="m 114.99121,74.70195 h 1.0795 v 3.439572 h 0.0212 l 1.57691,-3.439572 h 1.0795 l -1.47108,3.01624 1.74624,4.519069 h -1.143 l -1.22766,-3.344323 -0.58208,1.09008 v 2.254243 h -1.0795 z"
         style="fill:#edc85d;fill-opacity:1"
         id="path5255" /><path
         d="m 120.5792,78.067439 h 0.61383 q 0.28575,0 0.45509,-0.07408 0.16933,-0.08467 0.25399,-0.232833 0.0953,-0.148166 0.127,-0.359832 0.0318,-0.222249 0.0318,-0.507998 0,-0.285749 -0.0318,-0.497415 -0.0318,-0.22225 -0.13758,-0.370416 -0.0953,-0.158749 -0.27516,-0.232833 -0.17992,-0.07408 -0.47625,-0.07408 h -0.56092 z m -1.07949,-3.365489 h 1.73566 q 1.90499,0 1.90499,2.211909 0,0.656165 -0.21167,1.132413 -0.20108,0.465665 -0.71966,0.751415 l 1.16416,3.439572 h -1.14299 l -1.00542,-3.217323 h -0.64558 v 3.217323 h -1.07949 z"
         style="fill:#edc85d;fill-opacity:1"
         id="path5257" /><path
         d="m 125.65919,76.871526 h -0.0212 l -0.52916,2.730491 h 1.0795 z m -0.45508,-2.169576 h 0.89958 l 1.68274,7.535309 h -1.07949 l -0.3175,-1.619245 h -1.47108 l -0.3175,1.619245 h -1.0795 z"
         style="fill:#edc85d;fill-opacity:1"
         id="path5259" /><path
         d="m 128.2521,76.479944 q 0,-0.455082 0.15875,-0.804331 0.15875,-0.349249 0.41274,-0.571498 0.26459,-0.232833 0.58209,-0.349249 0.32808,-0.116416 0.65616,-0.116416 0.32808,0 0.64558,0.116416 0.32808,0.116416 0.58208,0.349249 0.26459,0.222249 0.42334,0.571498 0.15875,0.349249 0.15875,0.804331 v 0.380999 h -1.0795 v -0.380999 q 0,-0.391582 -0.22225,-0.571498 -0.21167,-0.1905 -0.508,-0.1905 -0.29633,0 -0.51858,0.1905 -0.21167,0.179916 -0.21167,0.571498 v 3.979321 q 0,0.391582 0.21167,0.582081 0.22225,0.179916 0.51858,0.179916 0.29633,0 0.508,-0.179916 0.22225,-0.190499 0.22225,-0.582081 v -1.418163 h -0.85725 v -0.952497 h 1.93675 v 2.37066 q 0,0.465665 -0.15875,0.814914 -0.15875,0.338665 -0.42334,0.571498 -0.254,0.222249 -0.58208,0.338665 -0.3175,0.116417 -0.64558,0.116417 -0.32808,0 -0.65616,-0.116417 -0.3175,-0.116416 -0.58209,-0.338665 -0.25399,-0.232833 -0.41274,-0.571498 -0.15875,-0.349249 -0.15875,-0.814914 z"
         style="fill:#edc85d;fill-opacity:1"
         id="path5261" /><path
         d="m 132.82409,79.432685 -0.508,0.402165 v -0.952497 l 0.508,-0.402165 V 74.70195 h 1.07949 v 2.931574 l 1.27,-1.015997 v 0.952497 l -1.27,1.015997 v 2.571741 h 2.13783 v 1.079497 h -3.21732 z"
         style="fill:#edc85d;fill-opacity:1"
         id="path5263" /><path
         d="m 136.67642,76.479944 q 0,-0.455082 0.15875,-0.804331 0.15875,-0.349249 0.41275,-0.571498 0.26458,-0.232833 0.58208,-0.349249 0.32808,-0.116416 0.65616,-0.116416 0.32808,0 0.64558,0.116416 0.32808,0.116416 0.58208,0.349249 0.26459,0.222249 0.42334,0.571498 0.15875,0.349249 0.15875,0.804331 v 3.979321 q 0,0.465665 -0.15875,0.814914 -0.15875,0.338665 -0.42334,0.571498 -0.254,0.222249 -0.58208,0.338665 -0.3175,0.116417 -0.64558,0.116417 -0.32808,0 -0.65616,-0.116417 -0.3175,-0.116416 -0.58208,-0.338665 -0.254,-0.232833 -0.41275,-0.571498 -0.15875,-0.349249 -0.15875,-0.814914 z m 1.07949,3.979321 q 0,0.391582 0.21167,0.582081 0.22225,0.179916 0.51858,0.179916 0.29633,0 0.508,-0.179916 0.22225,-0.190499 0.22225,-0.582081 v -3.979321 q 0,-0.391582 -0.22225,-0.571498 -0.21167,-0.1905 -0.508,-0.1905 -0.29633,0 -0.51858,0.1905 -0.21167,0.179916 -0.21167,0.571498 z"
         style="fill:#edc85d;fill-opacity:1"
         id="path5265" /></g><path
       style="fill:#edc85d;fill-opacity:1;stroke:#edc85d;stroke-width:0.1;stroke-linecap:butt;stroke-linejoin:miter;stroke-dasharray:none;stroke-opacity:1"
       d="m 92.902825,62.457324 c -0.0882,0.140599 -0.26461,0.421719 -0.33346,0.672634 -0.0688,0.250916 -0.0303,0.471399 0.14625,0.60908 0.17652,0.137682 0.49071,0.192802 0.66977,0.275628 0.17906,0.08282 0.22315,0.193057 0.0468,0.261789 -0.17634,0.06873 -0.57321,0.0963 -0.89289,0.01925 -0.31968,-0.07705 -0.56221,-0.258952 -0.69463,-0.451848 -0.13241,-0.192895 -0.15444,-0.396832 -0.10486,-0.576105 0.0496,-0.179273 0.17085,-0.333615 0.3004,-0.482459 0.12955,-0.148844 0.26735,-0.292161 0.42733,-0.369346 0.15998,-0.07719 0.34188,-0.08822 0.43271,-0.09373 0.0908,-0.0055 0.0908,-0.0055 0.003,0.135109 z"
       id="path5233" /></g></svg>
